<?xml version="1.0" standalone="no"?>
<!DOCTYPE svg PUBLIC "-//W3C//DTD SVG 1.1//EN" "http://www.w3.org/Graphics/SVG/1.1/DTD/svg11.dtd" >
<svg>
<metadata>
Created by FontForge 20140104 at Thu Mar 13 01:21:08 2014
 By U-zoghal-god\zoghal,S-1-5-21-2758449068-1321902542-3097588897-1003

</metadata>
<defs>
<font id="user-icon" horiz-adv-x="1000" >
  <font-face 
    font-family="user-icon"
    font-weight="400"
    font-stretch="normal"
    units-per-em="1000"
    panose-1="2 0 5 9 0 0 0 0 0 0"
    ascent="800"
    descent="-200"
    bbox="59 -2 941 752"
    underline-thickness="97"
    underline-position="-97"
    stemh="20"
    stemv="20"
    unicode-range="U+0001-E0C7"
  />
    <missing-glyph />
    <glyph glyph-name="uni0000" 
 />
    <glyph glyph-name="uni0001" horiz-adv-x="0" 
 />
    <glyph glyph-name="nonmarkingreturn" unicode="&#xd;" 
 />
    <glyph glyph-name="boy10" unicode="&#xe000;" 
d="M516 523c-20 0 -55 18 -75 18h-17c-33 0 -51 -12 -53 -37v-31c-14 0 -17 0 -17 -20c0 -14 9 -35 27 -35h6c18 -59 45 -95 82 -113c10 -4 21 -6 31 -6s21 2 31 8c35 16 62 52 82 109c12 0 30 12 32 22c2 6 1 13 1 21c0 14 -7 14 -17 14v17c-16 41 -38 65 -67 69
c-10 -23 -25 -36 -46 -36zM596 283l-14 24l-27 -16l-12 -8l-31 -17l13 -28l63 35l8 6v4zM418 307l-14 -24v-4c21 -16 48 -27 71 -41l13 28l-31 17l-12 8zM729 90c12 0 23 9 23 19v8l-18 94c-2 18 -19 37 -37 39l-82 18v-2l-88 -51c-8 0 -11 2 -13 6l-14 25l-14 -25
c-2 -4 -5 -6 -13 -6l-88 51v2l-82 -18c-18 -2 -35 -21 -37 -39l-18 -94v-8c0 -10 11 -19 23 -19h88v51c0 8 4 11 10 11s10 -3 10 -11v-51h242v51c0 8 4 11 10 11s10 -3 10 -11v-51h88zM271 70c-21 0 -42 15 -42 35v16l17 94c2 27 28 49 53 55l88 19l17 37c0 2 2 2 4 4
c-16 20 -27 43 -37 68c-21 8 -35 20 -37 38l-2 23c0 14 6 23 18 31c-6 6 -8 10 -8 16c0 20 4 47 10 80c10 39 54 84 97 90c10 2 21 2 33 2s25 -4 39 -10c6 8 16 12 26 12c-4 -4 -6 -8 -6 -12v-6c6 2 15 4 25 4s25 -6 43 -16c33 -20 51 -49 51 -86c0 -18 -4 -35 -10 -56v-18
c12 -8 18 -19 18 -35v-6c0 -23 -14 -41 -39 -51c-10 -25 -21 -48 -37 -68c2 -2 4 -2 4 -4l17 -37l88 -19c25 -6 51 -28 53 -55l17 -94v-16c0 -20 -21 -35 -42 -35h-458z" />
    <glyph glyph-name="boy5" unicode="&#xe001;" 
d="M258 250l12 16l5 -4l8 -8l6 -4l18 16l7 7l6 4l10 10l14 -14l-53 -50l-14 11l-15 12zM525 520c-12 0 -62 19 -76 19c-45 0 -68 -14 -72 -39v-8h2v-2h-2v-23c-2 2 -6 2 -8 2c-6 -2 -10 -8 -10 -14c0 -18 4 -31 16 -39c8 -6 14 -8 20 -6c21 -68 52 -107 95 -117
c6 -2 16 -4 26 -4c14 0 33 10 43 20c29 21 50 54 66 101h4c18 0 31 21 31 35c0 12 -4 22 -12 24h-2l-1 -2v2c-2 -2 -2 -2 -4 -2v19c-16 43 -40 67 -69 69c-10 -23 -26 -35 -47 -35zM508 268c-20 0 -39 5 -57 17l-29 -6c25 -21 55 -31 88 -31s63 10 88 31l-32 6
c-18 -12 -38 -17 -58 -17zM357 275c-10 31 -29 47 -60 47c-18 0 -33 -5 -47 -17c-14 -14 -20 -31 -20 -51s10 -33 28 -45c10 -10 23 -14 39 -14c33 0 62 30 62 65zM643 156c6 0 9 -4 9 -10v-13h114l-16 82c-2 20 -21 37 -39 41l-90 17c-29 -29 -66 -44 -109 -44
s-83 15 -114 44l-19 -3v-10c0 -23 -8 -43 -24 -61c-18 -16 -37 -23 -60 -23c-10 0 -21 2 -33 6l-8 -49h111v13c0 6 2 10 10 10s12 -4 12 -10v-56h246v56c0 6 4 10 10 10zM252 113c0 -16 7 -23 23 -23h90v23h-113zM744 90c16 0 24 7 24 23h-116v-23h92zM275 70
c-21 0 -43 20 -43 41c-2 2 -2 6 0 10l12 72c-21 14 -33 36 -33 61c0 49 39 90 86 90c35 0 66 -24 76 -55l59 14c-21 21 -41 51 -55 88c-25 10 -39 29 -39 58c0 16 5 27 17 35c-6 6 -7 20 -7 36s3 37 9 62c8 45 53 84 100 94c10 2 19 4 29 2c16 0 31 -4 45 -10
c6 8 16 12 26 12l-2 -2c-2 -6 -4 -10 -4 -16c6 2 15 4 27 4s25 -6 43 -16c35 -21 53 -50 53 -89c0 -18 -4 -36 -10 -57v-18c12 -8 18 -19 18 -37c0 -29 -14 -48 -39 -58c-14 -37 -34 -67 -57 -88l131 -28c23 -6 51 -31 53 -56l17 -98v-16c0 -20 -22 -35 -43 -35h-469z" />
    <glyph glyph-name="boy6" unicode="&#xe002;" 
d="M275 70c-23 0 -43 15 -43 35v16l12 72c-21 14 -33 36 -33 61c0 49 39 90 86 90c35 0 66 -24 76 -55l59 14c-21 21 -41 51 -55 88c-29 12 -39 27 -39 58c0 16 5 27 17 35c-6 6 -7 20 -7 36c0 78 41 142 109 156c6 2 12 2 16 2h23c10 0 21 -4 35 -10c6 8 16 12 26 12
c-4 -4 -6 -10 -6 -18c6 2 15 4 27 4s25 -6 43 -16c35 -21 53 -50 53 -89c0 -18 -4 -36 -10 -57v-18c12 -10 18 -19 18 -33c0 -31 -14 -52 -39 -62c-14 -37 -34 -67 -57 -88l131 -28c25 -6 49 -29 53 -56l17 -98v-16c0 -20 -22 -35 -43 -35h-469zM744 90c16 0 24 7 24 23
h-116v-23h92zM252 113c0 -16 7 -23 23 -23h90v23h-113zM643 156c6 0 9 -4 9 -10v-13h114l-16 82c-2 16 -25 39 -39 41l-90 17c-29 -29 -66 -44 -109 -44s-83 15 -114 44l-19 -3v-16c0 -45 -39 -78 -84 -78c-10 0 -21 2 -33 6l-8 -49h111v13c0 6 2 10 10 10s12 -4 12 -10v-56
h246v56c0 6 4 10 10 10zM297 195c33 0 62 30 62 63c0 35 -29 64 -64 64s-65 -27 -65 -60c0 -16 10 -35 28 -53c10 -10 23 -14 39 -14zM338 230c-6 -4 -10 -7 -14 -13l-29 27l-27 -27l-8 6v2l-6 5l27 30l-27 27l6 8l8 6l27 -28l29 28l14 -14l-27 -27l1 -4zM525 520
c-12 0 -62 19 -76 19c-31 0 -72 -10 -72 -39v-8l2 -2h-2v-23l-12 2c-4 0 -6 -4 -6 -10v-12c0 -12 4 -21 12 -27s16 -10 18 -10h6c21 -76 60 -113 115 -113c51 0 90 37 115 113h6c16 0 29 18 29 39c0 14 -4 20 -12 20h-2l-1 -2v2l-4 -2v19c-16 43 -40 67 -69 69
c-10 -23 -26 -35 -47 -35zM422 279c25 -21 55 -31 88 -31s63 10 88 31l-34 8c-20 -8 -38 -12 -56 -12s-37 4 -55 12z" />
    <glyph glyph-name="boy7" unicode="&#xe003;" 
d="M777 111c0 -23 -16 -41 -43 -41h-468c-16 0 -28 4 -34 12s-9 16 -9 20v19l17 98c2 27 28 50 53 56l129 28c-21 21 -41 51 -55 88c-25 10 -39 29 -39 58c0 16 6 27 18 35c-6 6 -8 16 -8 32c0 45 20 98 45 125c25 25 53 37 84 37h10c16 0 30 -4 44 -10c6 8 16 12 26 12
c-2 -2 -4 -6 -4 -10v-8c6 2 15 4 27 4s23 -6 41 -16c35 -21 53 -50 53 -91c0 -18 -4 -36 -10 -57v-16c12 -8 18 -19 18 -37c0 -29 -14 -48 -39 -58c-14 -37 -34 -67 -55 -88l129 -28c25 -6 51 -29 53 -56l17 -98v-10zM734 90c16 0 24 7 24 23h-113v-23h89zM242 113
c0 -16 8 -23 24 -23h89v23h-113zM367 156c6 0 10 -4 10 -10v-56h246v56c0 6 2 10 10 10s12 -4 12 -10v-13h111l-16 82c-2 18 -21 35 -37 41l-90 17c-31 -29 -70 -44 -113 -44s-80 15 -111 44l-92 -17c-16 -6 -35 -23 -37 -41l-16 -82h111v13c0 6 4 10 12 10zM500 268
c-20 0 -39 5 -59 17l-29 -6c25 -21 55 -31 88 -31s63 10 88 31l-31 6c-18 -12 -37 -17 -57 -17zM438 539c-45 0 -69 -12 -69 -37v-35c-4 2 -6 2 -8 2c-8 -2 -11 -8 -11 -16c2 -18 5 -29 13 -35s14 -8 16 -8h6c21 -68 52 -107 95 -117c6 -2 16 -4 26 -4s25 6 45 20
c29 21 50 54 64 101h4c2 0 8 2 18 8s13 15 13 27s-3 22 -11 24h-2c0 -2 0 -2 -2 -2v2c-2 0 -2 0 -4 -2v19c-16 43 -40 67 -69 69c-10 -23 -25 -35 -46 -35c-6 0 -18 3 -36 9s-32 10 -42 10z" />
    <glyph glyph-name="boy8" unicode="&#xe004;" 
d="M307 234l19 -15l41 39l6 -8l8 -8l-53 -51l-21 16l-12 12zM340 168c35 0 62 29 62 64s-29 63 -64 63c-33 0 -63 -30 -63 -65s32 -62 65 -62zM256 229c0 49 37 85 84 85c23 0 42 -7 60 -25c8 4 16 8 24 10c-20 21 -33 53 -39 94h-6c-2 0 -8 1 -16 9s-11 20 -11 36
s1 23 7 25c2 0 4 0 8 -2v45l-2 45c0 12 2 45 14 51c18 18 45 27 86 29l23 4c25 2 78 13 92 27l12 -39c39 -16 58 -52 58 -111v-51c2 2 6 2 8 2c4 -2 6 -6 6 -14s-2 -19 -6 -35s-11 -21 -21 -21h-4c-6 -41 -20 -73 -41 -94c82 -27 152 -106 152 -211h-473c0 27 6 53 16 78
c-21 18 -31 38 -31 63z" />
    <glyph glyph-name="boy9" unicode="&#xe005;" 
d="M232 78c0 119 96 204 196 229c-21 21 -37 47 -49 80c-20 6 -29 25 -29 62c0 14 3 25 11 31v59c0 64 29 82 86 90l14 4c47 4 76 11 86 21l31 28l4 -43c0 -6 2 -14 4 -22c37 -16 55 -52 55 -109v-31c6 -4 9 -12 9 -24s-1 -23 -5 -39s-12 -25 -26 -31
c-10 -31 -25 -56 -45 -76c100 -25 194 -112 194 -229v-10h-536v10zM639 88h109c-6 88 -67 152 -135 183c-27 -41 -64 -60 -113 -60s-86 19 -113 60c-68 -31 -129 -95 -135 -183h111v53c0 6 4 9 10 9s10 -3 10 -9v-53h234v53c0 6 4 9 12 9s10 -3 10 -9v-53zM406 279
c23 -33 55 -49 94 -49s71 16 94 49c-12 4 -25 8 -39 10c-18 -12 -35 -18 -55 -18s-35 6 -53 18c-14 -2 -27 -6 -41 -10zM377 465c-6 -2 -8 -8 -8 -14c0 -21 4 -35 14 -45c6 -6 5 -4 13 -4c18 -53 42 -85 71 -101c10 -6 21 -8 33 -8c21 0 35 12 49 18c25 21 42 50 56 91h4
c8 0 14 8 18 24s6 23 6 27s-2 8 -4 10h-10v57c0 45 -16 71 -49 85c-6 12 -7 24 -9 34c-14 -14 -42 -22 -81 -26s-62 -9 -70 -15c-20 -16 -29 -10 -29 -47v-88c-2 0 -2 0 -4 2z" />
    <glyph glyph-name="boys" unicode="&#xe006;" 
d="M105 197c0 66 49 113 102 131c-10 10 -15 23 -21 37c-14 6 -22 22 -22 45c0 8 2 14 8 20v33c0 20 0 27 16 41c12 12 30 13 50 19c23 2 37 4 43 10l33 29l4 -44v-6c21 -12 34 -36 34 -69v-13c4 -6 5 -12 5 -20c0 -21 -5 -37 -19 -45c-6 -14 -12 -27 -22 -37
c25 -10 47 -23 65 -41c16 8 31 14 47 20c-14 18 -25 37 -35 60c-18 10 -28 30 -28 59c0 14 4 23 10 31v29c0 25 2 45 8 57c10 21 33 35 72 43l12 2c37 4 58 10 64 16l41 37l6 -57c0 -2 0 -6 2 -10c29 -16 45 -47 45 -94v-25c6 -6 10 -15 10 -25c0 -33 -10 -55 -28 -65
c-10 -21 -21 -40 -35 -58c18 -6 33 -12 47 -20c18 18 40 31 65 41c-10 10 -16 23 -22 37c-14 8 -19 17 -19 33s1 26 7 32l-2 8v19c0 23 2 31 18 47c12 12 29 13 49 19c23 2 37 4 43 10l33 29l4 -44c0 -2 0 -4 2 -6c21 -10 31 -34 31 -69v-13c6 -6 8 -12 8 -18
c0 -25 -8 -41 -22 -47c-6 -14 -11 -27 -19 -37c53 -18 100 -65 100 -131v-9h-186c10 -21 14 -46 14 -69v-10h-446v10c0 23 4 48 14 69h-186v9zM811 242c6 0 9 -4 9 -10v-25h55c-4 43 -27 75 -70 96c-18 -23 -40 -35 -67 -35s-48 12 -64 35c-14 -8 -27 -18 -37 -28
c25 -18 46 -41 62 -68h102v25c0 6 4 10 10 10zM605 182c6 0 10 -4 10 -10v-43h88c-2 27 -9 53 -27 78v2c-10 16 -28 33 -53 53c-6 4 -10 7 -18 11c-4 2 -9 2 -11 4c-21 -33 -53 -50 -94 -50s-73 17 -94 50c-4 -4 -17 -7 -21 -11c-2 -2 -6 -6 -14 -10
c-21 -14 -37 -31 -47 -49c-10 -10 -5 -13 -15 -31c-6 -12 -10 -27 -12 -47h88v43c0 6 4 10 10 10s9 -4 9 -10v-43h192v43c0 6 3 10 9 10zM188 242c8 0 11 -4 11 -10v-25h102c16 27 37 50 62 68c-10 10 -23 20 -37 28c-16 -23 -37 -35 -64 -35s-49 12 -67 35
c-43 -21 -66 -53 -70 -96h53v25c0 6 2 10 10 10zM223 312c-2 -2 -4 -1 -8 -1c14 -14 29 -22 47 -22s33 8 45 22c-2 0 -4 -1 -6 1c-12 -10 -25 -13 -39 -13s-27 3 -39 13zM184 410c0 -8 3 -27 11 -27l6 -2v-4c6 -18 16 -33 28 -43c6 -10 15 -16 27 -16s21 2 29 6l10 10
c12 12 19 27 27 45c10 6 16 10 16 31c0 4 0 6 -2 6l-4 2v20c0 35 -9 50 -29 60c-2 6 -4 12 -4 18l-2 4c-8 -8 -28 -14 -57 -16c-29 -8 -47 -17 -49 -29v-36l2 -19c-6 -2 -9 -6 -9 -10zM396 447c-6 -4 -11 -7 -11 -17c0 -14 5 -43 17 -45l6 -2l2 -4c14 -41 36 -70 65 -84
c10 -2 17 -4 25 -4c41 0 70 27 90 84v4c12 4 17 9 21 23c2 12 4 22 4 28c0 10 -2 11 -10 13v32c0 47 -14 70 -41 84c-4 6 -5 13 -7 23v16l-12 -10c-8 -8 -33 -14 -76 -20c-45 -10 -69 -24 -73 -45c-2 -8 -1 -17 -1 -29v-23zM500 270c-20 0 -37 7 -55 21c-8 -2 -13 -4 -19 -6
c18 -25 43 -37 74 -37s56 12 74 37c-6 2 -11 4 -17 6c-18 -14 -37 -21 -57 -21zM699 312c-2 -2 -4 -1 -8 -1c14 -14 29 -22 47 -22s33 8 47 22c-4 0 -6 -1 -8 1c-12 -10 -25 -13 -39 -13s-25 3 -39 13zM809 443c0 31 -10 45 -30 55v4c-2 6 -4 10 -4 14v4
c-14 -6 -25 -12 -58 -16l-6 -2c-29 -6 -43 -18 -43 -39l2 -24v-19c-4 -2 -8 -4 -8 -12c2 -4 4 -25 10 -25l6 -2c8 -18 11 -31 21 -41l16 -16c8 -4 17 -6 29 -6s21 6 27 16c14 12 18 27 28 45c6 4 11 6 13 16c2 8 2 11 2 15s0 6 -2 6l-3 2v25z" />
    <glyph glyph-name="boys1" unicode="&#xe007;" 
d="M867 463v-16c6 -6 8 -11 8 -21c-4 -21 -5 -35 -23 -47c-2 -10 -8 -17 -14 -27c2 -2 4 -2 6 -4l13 -30c55 -29 82 -70 82 -127v-9h-199c18 -33 28 -67 28 -104v-10h-536v10c0 37 10 71 28 104h-199v9c0 57 27 98 82 127l13 30c2 2 4 2 6 4c-6 10 -12 19 -16 29
c-14 6 -21 20 -21 45c0 10 2 17 8 23v28c0 27 1 34 19 50c10 10 23 16 43 20h8c25 2 41 6 47 12l33 31l6 -47v-6c23 -14 35 -37 35 -74v-16c6 -6 8 -11 8 -17c0 -25 -7 -43 -21 -51c-4 -10 -8 -17 -14 -27l4 -4l13 -30c20 -10 35 -21 49 -37l24 49c1 3 4 4 7 4s7 -1 12 -4
c-12 18 -21 36 -27 57c-21 6 -31 25 -31 60c0 16 3 27 13 33v22c0 4 0 9 -2 19v14c0 62 24 84 88 96l14 2c47 4 76 11 86 21l29 28l6 -43c0 -6 2 -14 4 -22c35 -14 53 -48 53 -103v-37c8 -4 11 -12 11 -24s-1 -23 -5 -39s-12 -25 -26 -31c-6 -18 -15 -35 -25 -53
c5 3 9 4 12 4s6 -1 7 -4l24 -49c14 16 29 27 49 37l13 30c0 2 2 2 4 4c-6 10 -10 19 -14 29c-14 6 -21 20 -21 45c0 10 2 17 8 23v36c0 22 1 28 17 42c10 10 25 16 45 20h8c25 2 41 6 47 12l33 31l4 -47c2 -2 2 -4 2 -6c23 -14 35 -37 35 -74zM850 240c6 0 9 -4 9 -10v-29
h59c-4 41 -25 75 -64 98l-61 -35c-2 -2 -4 -2 -6 -2s-2 0 -2 2c-4 0 -6 2 -8 4l-6 13l-7 -13c-2 -2 -4 -4 -6 -4l-2 -2c-2 0 -4 0 -6 2l-61 35c-14 -8 -25 -18 -35 -28c16 -10 29 -19 41 -33c10 -6 22 -19 34 -37h111v29c0 6 4 10 10 10zM643 254c0 2 -6 6 -8 6h-2l-102 -59
c-2 -2 -4 -2 -6 -2l-2 2c-2 0 -3 2 -5 4l-18 35l-18 -35c-2 -2 -3 -4 -5 -4h-8l-102 59h-2c-2 0 -8 -4 -8 -6c-16 -10 -29 -19 -41 -31c-14 -12 -17 -22 -27 -32c-4 -4 -4 -5 -6 -9c-18 -29 -29 -61 -31 -94h111v53c0 6 4 9 10 9s10 -3 10 -9v-53h234v53c0 6 4 9 10 9
s10 -3 10 -9v-53h111c-6 72 -50 135 -105 166zM150 240c6 0 10 -4 10 -10v-29h111c8 12 14 20 20 26l14 13c12 12 25 21 41 31c-10 10 -21 20 -35 28l-61 -35c-2 -2 -2 -2 -4 -2s-4 0 -4 2c-2 0 -4 2 -6 4l-7 13l-6 -13c-2 -2 -4 -4 -6 -4c-2 -2 -2 -2 -4 -2s-4 0 -6 2
l-61 35c-39 -23 -60 -57 -64 -98h59v29c0 6 3 10 9 10zM312 428c0 6 -4 7 -7 10v19c0 37 -12 54 -32 64l-2 4l-3 16v6c-12 -12 -26 -16 -61 -20h-10c-35 -8 -45 -19 -45 -56c2 -6 2 -10 2 -12v-20c-4 -4 -9 -5 -9 -13s7 -28 13 -30h4c16 -45 38 -68 67 -68c31 0 54 32 64 61
v4c9 4 19 20 19 35zM295 312l-2 6l-6 10l-45 -25l6 -16l41 22zM170 328l-6 -10l-2 -6l47 -25l8 16l-26 13l-11 8zM400 311c-5 -12 -10 -26 -17 -36l88 -50l17 35l-49 29l-11 6l-12 8zM617 275c-7 10 -12 24 -17 36l-16 -8c-23 -16 -49 -27 -72 -41l19 -37l80 46zM687 425
c0 -13 7 -26 12 -29h6c21 -37 45 -60 66 -68c35 0 49 36 65 65c12 6 18 17 18 35c0 4 0 6 -2 6l-6 4v25c0 33 -10 48 -30 58c-4 8 -5 14 -5 20v6c-12 -12 -26 -16 -63 -20h-8c-20 -4 -43 -13 -45 -31v-37l2 -20c-6 -4 -10 -6 -10 -14zM838 312l-2 6l-6 10l-10 -4l-11 -8
l-26 -13l8 -16l39 22zM713 328l-6 -10l-2 -6l47 -25l6 16l-37 21zM605 402h6c14 0 20 31 20 47c0 8 -1 15 -7 15c-1 0 -3 0 -5 -1v45c0 51 -16 83 -49 97c-6 12 -9 24 -9 34c-14 -14 -41 -24 -82 -26s-63 -5 -69 -11c-16 -16 -27 -18 -29 -51v-88c-2 1 -4 1 -5 1
c-5 0 -9 -5 -9 -13c0 -14 8 -49 24 -49h4c16 -51 35 -81 56 -91c14 -8 26 -18 49 -18c14 0 23 2 31 8l16 10c25 21 44 50 58 91z" />
    <glyph glyph-name="business25" unicode="&#xe008;" 
d="M617 615c102 0 153 -69 153 -176v-138l13 -4c25 -6 39 -22 43 -45l14 -76c0 -2 0 -6 2 -8c-2 -18 -16 -33 -37 -33h-375c-14 0 -32 13 -32 25v16l12 76c2 10 6 17 12 23v98h-111v-230h-22v146h-109v-146h-20v166h131v84h131v103h51c16 80 64 119 144 119zM506 412
c0 -16 9 -27 21 -27h4c8 -31 19 -51 35 -61c6 -4 10 -6 12 -8l8 -7l-14 -2l-47 -10l28 -29l6 -10c16 -14 27 -29 41 -45l9 45v8l-13 13l17 20l4 4l6 -4l18 -20l-16 -13l12 -53l41 45l31 39l-61 12l8 7c25 18 41 42 49 69h6c10 6 19 13 19 25c0 8 -1 14 -7 20h-6v13h-71v63
l-9 -59h-117v-17h-6c-6 -2 -8 -8 -8 -18zM441 477v-184l12 4l14 4v138c0 12 0 24 2 38h-28zM805 150c10 0 19 6 19 14v8l-13 78c-4 21 -16 27 -41 33l-43 10l-102 -119c-2 -2 -4 -4 -6 -4s-4 2 -6 4l-74 86l-31 33l-41 -10c-25 -6 -39 -15 -41 -33l-12 -78v-6
c0 -10 6 -16 16 -16h74v39c0 6 2 8 8 8s8 -2 8 -8v-39h197v39c0 6 2 8 8 8s7 -2 7 -8v-39h73z" />
    <glyph glyph-name="business26" unicode="&#xe009;" 
d="M824 232v356h-648v-356h31c6 49 41 76 109 82l-27 -27h22l-16 -16l39 -39h45l39 39l-16 16h22l-28 27c68 -6 104 -33 110 -82h318zM609 203v-37h24v-33h-266v33h24v37h-245v414h708v-414h-245zM498 340c6 4 15 13 33 29h-33v-29zM541 381c2 0 4 2 6 4v41h-49v-45h43z
M498 438h49v44h-49v-44zM498 494h49v43h-49v-43zM557 330h47v39h-47v-39zM557 395c12 10 23 21 33 31h-33v-31zM557 438h45l2 1v43h-47v-44zM557 494h47v43h-47v-43zM613 330h47v39h-47v-39zM613 381h47v27l-47 18v-45zM613 438h47v44h-47v-44zM613 494h47v43h-47v-43z
M670 330h47v39h-47v-39zM670 381h47v45h-2l-20 -31l-25 7v-21zM670 414l19 -8l12 20h-31v-12zM670 438h39l8 13v31h-47v-44zM670 494h47v43h-47v-43zM727 330h46v39h-46v-39zM727 381h46v45h-46v-45zM727 438h46v44h-25l-21 -35v-9zM727 469l9 13h-9v-13zM727 494h15l26 43
h-41v-43zM773 525l-17 -31h17v31zM660 426h-19l19 -8v8zM604 424c-21 -20 -37 -33 -47 -43h47v43zM547 369c-23 -21 -39 -33 -45 -39h45v39zM486 547h297v-229h-297v229zM355 521c62 0 94 -41 94 -107v-76h-68c20 20 31 47 33 80c-21 4 -37 13 -47 27
c-14 -20 -37 -29 -66 -29h-2c4 -33 15 -60 33 -78h-68v76c0 66 29 107 91 107z" />
    <glyph glyph-name="business27" unicode="&#xe00a;" 
d="M738 314l-17 -33l-10 4l8 16l-170 -59l-111 20l-172 -39l-4 11l176 41l109 -21l166 58l-14 8l6 10zM529 424c0 6 2 6 8 6v47c0 21 6 21 18 29c6 4 15 6 31 6c29 4 49 9 57 15c0 -12 1 -17 3 -19c20 -8 30 -26 30 -51v-27c6 0 8 -2 8 -4c0 -10 -4 -30 -14 -30h-2
c-4 -21 -12 -36 -22 -46c14 -4 26 -10 36 -20l-135 -47l-109 20l-168 -39c6 25 21 40 44 50c-6 6 -9 16 -11 30h-2c-4 0 -10 9 -10 15c0 4 2 6 4 6v2c2 0 2 0 2 -2v33c0 25 52 22 68 32c0 -6 2 -10 4 -12c12 -6 18 -15 18 -31v-22c0 2 0 2 2 2l2 -2c2 0 2 -2 2 -4
c0 -6 -6 -17 -10 -17c-2 -14 -8 -24 -14 -30c10 -4 18 -9 26 -15c10 14 23 23 39 29c-8 8 -14 19 -16 35h-2c-6 0 -10 16 -10 22c0 2 2 4 4 6l2 -2v17c0 2 0 6 -2 12v6c0 2 4 15 6 17c4 2 10 10 18 12c21 4 52 6 60 14c0 -10 2 -14 4 -16c14 -6 22 -19 22 -39v-23
c2 2 1 2 3 2h2v-4c0 -8 -1 -24 -9 -24h-2c-2 -16 -8 -27 -16 -35c6 -2 14 -6 20 -12c14 16 28 28 46 34c-10 10 -15 25 -19 46h-2c-2 0 -2 -1 -4 -1c-8 0 -10 19 -10 29z" />
    <glyph glyph-name="business28" unicode="&#xe00b;" 
d="M520 232h304v356h-648v-356h23c2 53 38 82 106 92l37 -70l6 45l-10 8h41l-8 -6l6 -47l35 70c68 -10 104 -39 108 -92zM854 203h-245v-37h24v-33h-266v33h24v37h-245v414h708v-414zM359 336c-33 0 -58 39 -68 68h-2c-6 -2 -10 2 -10 14s2 16 8 16v13c0 43 33 76 72 76
c47 0 71 -28 73 -87c6 -2 7 -6 7 -14v-4c0 -10 -3 -14 -11 -14c-8 -27 -36 -68 -69 -68zM631 297c-66 0 -125 59 -125 125c0 68 57 123 123 125v-129h127c-2 -66 -57 -121 -125 -121zM650 551c59 -6 110 -54 112 -115h-112v115z" />
    <glyph glyph-name="businessman11" unicode="&#xe00c;" 
d="M330 182v-8h8v-18h-26v26h18zM373 156v18h35v-18h-35zM312 217v35h18v-35h-18zM551 174v-18h-35v18h35zM715 168c57 -8 84 -33 84 -78h-248v4c0 43 27 68 82 74l27 -55l6 35l-8 6h31l-5 -6l4 -35zM443 508v17h37v-17h-37zM330 322v-35h-18v35h18zM443 156v18h37v-18h-37z
M330 395v-38h-18v38h18zM727 230c-6 -23 -28 -54 -53 -54h-2c-10 0 -19 5 -27 15c-10 10 -18 23 -22 39l-2 -1c-6 0 -8 3 -8 11c0 2 0 2 -2 4c0 6 2 8 6 8h2v12c0 33 22 56 57 56c35 -2 52 -23 54 -68c4 0 6 -2 6 -10s-1 -12 -7 -12h-2zM664 357v38h18v-38h-18zM682 465v-35
h-18v35h18zM367 508c55 -8 82 -33 82 -78h-248c0 45 27 70 84 78l27 -55l4 35l-5 6h31l-8 -6l6 -35zM664 500v8h-8v17h26v-25h-18zM273 568c-6 0 -9 8 -9 16c0 6 2 8 6 8h1v12c0 31 22 56 55 56c35 -2 53 -23 55 -68h2c2 0 4 -2 4 -4c0 -14 -2 -20 -8 -20
c-6 -21 -28 -52 -53 -52s-45 31 -53 52zM621 525v-17h-35v17h35zM551 508h-35v17h35v-17z" />
    <glyph glyph-name="businessman12" unicode="&#xe00d;" 
d="M701 146h6c2 0 6 2 8 6l6 12v6l-14 84c-2 20 -13 31 -33 35l-55 12l-111 -127c-2 -2 -4 -2 -8 -2s-4 0 -6 2l-88 103c-14 -29 -35 -45 -66 -45c-18 0 -33 6 -47 18l-14 -74v-6c0 -12 6 -18 20 -18l78 -2v43c0 6 4 10 10 10s8 -4 8 -10v-43l210 -2v43c0 6 2 8 8 8
s10 -2 10 -8v-43zM350 262h-20v31h-33v21h33v32h20v-32h31v-21h-31v-31zM504 602c-64 0 -111 -44 -113 -106v-45c-4 0 -4 2 -6 0c-6 -2 -10 -4 -10 -10c0 -16 4 -25 12 -31c6 -6 9 -8 11 -8h6c10 -33 21 -56 35 -70c6 -6 35 -35 53 -35h14c10 2 19 6 33 14
c25 18 47 46 63 89h3l12 4c10 6 16 16 16 28s-2 17 -8 17h-4c-2 0 -2 0 -4 -2v47c0 64 -49 108 -113 108zM521 215l79 90l-28 6c-16 -16 -31 -26 -49 -30l2 -2l-15 -15zM410 309v-10l70 -80l12 45l-15 15l3 2c-18 6 -34 15 -48 31zM338 252c29 0 47 20 53 43v19
c-8 25 -24 41 -51 41c-25 0 -53 -23 -53 -46c0 -18 10 -28 14 -38c10 -14 23 -19 37 -19zM506 619c74 0 131 -51 131 -125l-2 -31c12 -6 17 -15 17 -25c0 -25 -14 -49 -35 -55c-10 -21 -19 -41 -31 -57l92 -19c21 -4 45 -28 47 -49l13 -92c-2 -25 -14 -37 -37 -37l-402 6
c-21 0 -31 3 -31 11l-8 26c0 2 0 4 2 8l15 82l2 4c-8 12 -11 25 -11 43c0 33 33 66 68 66s62 -22 70 -49l12 2c-12 18 -21 36 -29 57c-21 8 -32 26 -34 51c0 14 6 25 18 31v29c2 39 16 69 37 90c25 21 55 33 86 33h10z" />
    <glyph glyph-name="businessman13" unicode="&#xe00e;" 
d="M330 178c39 -6 59 -24 59 -53h-172c0 29 19 47 56 53l20 -37l2 25l-4 4h21l-3 -4l2 -25zM727 178c37 -6 56 -24 56 -53h-172c0 29 20 47 59 53l19 -37l2 25l-3 4h21l-4 -4l2 -25zM338 221c-4 -16 -19 -33 -35 -37c-18 2 -31 14 -37 37c-4 0 -6 2 -6 8v5c0 2 2 4 4 4
c0 25 14 47 39 47c25 -2 37 -18 37 -47c4 -2 6 -4 6 -8l-2 -1c0 -6 -2 -8 -6 -8zM598 504c59 -31 109 -94 111 -176l27 27l10 -9l-45 -45l-43 45l10 9l27 -27c-2 74 -46 131 -97 158v18zM346 346l-43 -45l-45 45l10 9l27 -27c2 82 52 145 111 176v-18
c-51 -27 -95 -84 -97 -158l27 27zM496 467c-27 0 -49 33 -55 58h-2c-6 0 -9 4 -9 12s2 12 6 14h2v8c0 37 23 66 60 66c39 -2 59 -25 61 -74c4 -2 5 -6 5 -8v-6c-2 -8 -3 -12 -9 -12c-6 -23 -32 -58 -59 -58zM734 221c-4 -16 -19 -35 -37 -37c-18 2 -29 14 -35 37
c-4 0 -6 2 -6 8v5c0 2 0 4 2 4l2 -2v6c0 25 14 43 39 43c25 -2 37 -18 37 -47c2 -2 4 -3 4 -9s-2 -8 -6 -8zM482 398l6 38l-8 7h36l-8 -7l4 -38l31 59c61 -8 92 -35 92 -84l-274 -2c0 49 31 78 92 86z" />
    <glyph glyph-name="businessman14" unicode="&#xe00f;" 
d="M807 303v52h-59v-52h59zM457 303h2l-2 2v-2zM457 566v-54h63v54h-63zM807 512v39l-24 -39h24zM807 439v59h-32l-27 -45v-14h59zM748 369h59v57h-59v-57zM736 369v57h-4l-25 -41l-29 11v-27h58zM678 303h58v52h-58v-52zM605 303h59v52h-59v-52zM533 303h59v52h-59v-52z
M520 355c-29 -29 -49 -46 -57 -52h57v52zM457 355v-39c8 6 22 19 43 39h-43zM457 426v-57h57l6 4v53h-63zM520 498h-63v-59h63v59zM533 498v-59h57c0 2 0 2 2 2v57h-59zM592 566h-59v-54h59v54zM664 566h-59v-54h59v54zM736 566h-58v-54h58v54zM768 512l33 54h-53v-54h20z
M748 480l12 18h-12v-18zM678 412l25 -10l14 24h-39v-14zM664 418v8h-25zM605 369h59v33l-59 24v-57zM576 426h-43v-39c14 14 29 27 43 39zM533 369h59v55c-23 -23 -43 -41 -59 -55zM605 439h59v59h-59v-59zM736 457v41h-58v-59h47zM820 580v-289h-375v289h375zM340 283
c-33 0 -59 40 -67 69c-6 0 -11 7 -11 13c-2 2 -2 6 -2 10s2 6 8 8l2 -2v8c0 45 23 82 66 82h6c47 -2 70 -31 72 -88c6 0 8 -2 8 -8v-10c-2 -10 -6 -13 -12 -13c-8 -29 -37 -69 -70 -69zM504 170h-324c0 57 35 91 107 101l37 -72l6 47l-10 8h41l-7 -8l5 -45l36 70
c72 -10 109 -42 109 -101z" />
    <glyph glyph-name="businessman15" unicode="&#xe010;" 
d="M244 305h274v-8h-282v189h8v-131l76 32l63 -8l39 39l70 31l-15 8l3 6l28 -12l-14 -27l-6 4l8 15l-70 -31l-41 -41l-65 8l-76 -31v-43zM590 434c0 47 33 78 78 80c49 -2 72 -33 74 -94h2c6 0 8 -4 8 -10c0 -14 -4 -21 -14 -21c-8 -31 -37 -73 -72 -73s-62 42 -70 73h-2
c-6 0 -10 3 -12 13v8c0 6 2 8 8 10v14zM199 275h330c8 6 18 10 30 16v221h-360v-237zM838 197h-342c0 25 6 45 20 63h-330v252h-24v41h442v-41h-32v-217c12 4 23 6 37 8l39 -74l6 48l-9 8h43l-8 -8l6 -48l37 76c76 -10 115 -47 115 -108z" />
    <glyph glyph-name="businessman16" unicode="&#xe011;" 
d="M834 590h-309v-235h84v-54l57 54h168v235zM859 615v-285h-183l-92 -90v90h-84v285h359zM770 471c-2 -49 -41 -88 -92 -88c-49 0 -92 39 -92 90s41 91 90 91v-93h94zM691 568c43 -6 80 -39 82 -84h-82v84zM430 271c98 -14 146 -58 146 -136h-435c0 78 48 122 144 136
l49 -95l8 62l-12 10h57l-14 -10l8 -62zM357 287c-45 0 -77 53 -89 92c-12 0 -18 5 -18 19s4 20 10 22h2v8c0 61 36 111 97 111c62 -2 94 -41 96 -119h2c6 -2 10 -6 10 -14c0 -18 -6 -27 -16 -27c-12 -37 -49 -92 -94 -92z" />
    <glyph glyph-name="businessman17" unicode="&#xe012;" 
d="M664 291c-64 0 -115 53 -115 117s51 117 115 117v-121h119c-2 -61 -55 -113 -119 -113zM684 529c57 -6 99 -50 105 -107h-105v107zM498 311c96 -14 145 -59 145 -135h-432c0 76 48 121 144 135l47 -96l8 62l-12 10h55l-12 -10l8 -62zM426 324c-45 4 -78 51 -90 92
c-10 0 -16 10 -16 31c0 6 2 8 8 10h2v14c0 62 39 103 98 103c61 -2 93 -41 95 -117c6 -2 10 -6 10 -14c0 -18 -3 -25 -13 -25h-2c-10 -41 -47 -90 -92 -94z" />
    <glyph glyph-name="businessman18" unicode="&#xe013;" 
d="M814 359c0 10 -3 16 -13 16s-16 -6 -16 -16s6 -13 16 -13s13 3 13 13zM777 553h-554v-356h554v356zM801 598c12 0 21 -12 21 -24v-398c0 -12 -9 -24 -21 -24h-602c-12 0 -21 12 -21 24v398c0 12 9 24 21 24h602zM443 295l12 -6c6 6 15 13 25 23h-37v-17zM443 324h49l4 4
v45h-53v-49zM443 385h53v49h-53v-49zM443 445h53v47h-53v-47zM508 270h49v42h-49v-42zM508 338c4 6 15 17 35 35h-35v-35zM508 385h49v49h-49v-49zM508 445h49v47h-49v-47zM568 270h51v42h-51v-42zM568 324h51v30l-51 19v-49zM568 385h51v49h-51v-49zM568 445h51v47h-51v-47
zM629 270h51v42h-51v-42zM629 324h51v49h-2l-22 -35l-27 10v-24zM629 361l21 -9l14 21h-35v-12zM629 385h41l10 13v36h-51v-49zM629 445h51v47h-51v-47zM691 270h49v42h-49v-42zM691 324h49v49h-49v-49zM691 385h49v49h-27l-22 -38v-11zM691 418l8 16h-8v-16zM691 445h16
l27 47h-43v-47zM740 479l-19 -34h19v34zM619 373h-21l21 -8v8zM557 371c-18 -18 -35 -33 -49 -47h49v47zM496 312c-14 -14 -23 -23 -33 -31c2 -4 4 -7 6 -11h27v42zM475 238h-231c0 41 25 65 76 73l28 -51l4 33l-8 4h31l-8 -4l4 -33l27 51c14 -2 26 -4 36 -10v201h318v-244
h-279c2 -6 2 -14 2 -20zM309 395c0 35 19 58 50 58c33 -2 51 -23 51 -64h4c2 0 2 -2 2 -10s-2 -12 -8 -12c-6 -20 -26 -49 -49 -49c-25 0 -42 28 -48 49c-6 0 -10 4 -10 12s2 10 4 10h4v6z" />
    <glyph glyph-name="businessman19" unicode="&#xe014;" 
d="M617 303c-55 0 -103 48 -103 103c0 57 46 102 101 104v-108h106c-2 -53 -47 -99 -104 -99zM725 418h-92v94c49 -2 90 -45 92 -94zM555 230h-282c0 51 32 80 94 88l31 -60l6 39l-8 6l18 2h18l-8 -8l6 -39l31 60c62 -8 94 -37 94 -88zM352 424c0 43 25 68 64 68
c41 -2 61 -27 61 -76h2c4 -2 5 -4 5 -6c0 -14 -3 -19 -9 -21c-6 -18 -14 -31 -26 -41c-12 -14 -23 -20 -35 -20h-2c-29 0 -49 36 -57 61c-8 2 -11 5 -11 13v2c0 6 2 10 8 12v8zM801 346c10 0 13 3 13 13s-3 16 -13 16s-16 -6 -16 -16s6 -13 16 -13zM777 197v356h-554v-356
h554zM178 574c0 12 9 24 21 24h602c12 0 21 -12 21 -24v-398c0 -12 -9 -24 -21 -24h-602c-12 0 -21 12 -21 24v398z" />
    <glyph glyph-name="businessman20" unicode="&#xe015;" 
d="M258 156c0 -14 7 -25 21 -25h84v49c0 8 4 11 12 11s10 -3 10 -11v-49h230v49c0 8 2 11 10 11s12 -3 12 -11v-49h84c10 0 21 9 21 17v8l-17 92c-2 16 -20 33 -36 35l-68 16l-111 -131c-2 -2 -6 -4 -10 -4s-4 2 -6 4l-115 131l-68 -14c-14 -4 -34 -21 -36 -37zM584 311
c-4 4 -14 9 -16 11h-2c-2 6 -4 12 -4 18s2 15 6 23s8 21 12 41l8 -6h2v4c8 8 11 33 15 45c2 6 2 12 2 14s-1 4 -3 4h-8l2 4v4c2 10 4 21 4 35c0 43 -30 82 -59 92c-21 6 -45 9 -66 9l-2 4l-24 -6l-2 2c-10 -6 -13 -11 -15 -15s-4 -6 -10 -6s-12 -2 -18 -8l2 -2
c-8 -8 -12 -15 -12 -21l2 -2c-2 -10 -3 -25 -3 -43s3 -33 9 -47h-4c-6 0 -7 -2 -7 -4v-8c0 -2 0 -6 2 -12l7 -21v-4c6 -10 8 -16 10 -18l4 2l4 -4v-1c2 -16 16 -31 16 -45c0 -4 0 -10 -2 -18v-4c0 -8 -2 -12 -8 -12c-4 -2 -8 -5 -10 -7v-2h-4l-10 -4l73 -80l11 41l-21 13
l35 28l35 -28l-21 -13l13 -43l71 82l-14 4v4zM279 109c-23 0 -41 17 -41 37v14l16 92c6 23 28 47 53 53l97 21c4 2 6 4 8 6v4c2 8 2 14 2 16c-6 10 -10 19 -14 29c-10 10 -13 11 -19 29v4l-6 18c-2 6 -4 15 -4 25s2 16 8 22c-4 14 -6 27 -6 41l2 39c0 2 2 7 4 13l-4 4l10 14
c8 8 17 13 31 17c2 6 8 10 14 14s13 10 27 20l4 -8c6 2 11 2 19 2s16 0 24 -2h4v-4c62 -6 115 -45 115 -115c0 -14 0 -25 -2 -35c4 0 10 -12 10 -18c0 -12 -8 -25 -10 -39c-2 -8 -4 -14 -6 -20l-6 -11c-4 -6 -7 -10 -11 -12c-4 -14 -14 -27 -14 -41c6 -2 10 -6 14 -12
l95 -21c25 -6 47 -30 53 -53l16 -92v-14c0 -20 -18 -37 -41 -37h-442z" />
    <glyph glyph-name="businessman21" unicode="&#xe016;" 
d="M301 287l-4 4l6 8l2 2l4 6l2 -2l3 -2l12 -12h2l4 2l12 12l11 9v2l14 14l8 -8v-2l6 -6l-53 -50l-21 17zM279 172c0 -10 10 -20 20 -20l78 -2v43c0 6 4 10 10 10s8 -4 8 -10v-43l210 -2v43c0 6 2 8 6 8h4c6 0 8 -2 8 -8v-43l78 -2h6c2 0 6 2 8 6l6 12v6l-14 84
c-2 16 -19 31 -33 35l-55 12l-111 -127c-2 -2 -4 -2 -6 -2s-6 0 -8 2l-88 103c-12 -29 -33 -45 -66 -45c-18 0 -33 6 -47 18l-14 -74v-4zM404 402c14 -47 41 -99 94 -105h8c20 2 48 17 58 35c16 18 28 41 38 68h3l12 4c10 6 16 16 16 28s-2 17 -8 17h-4c-2 0 -4 0 -4 -2v47
c0 64 -49 108 -113 108s-111 -44 -113 -106v-45c-4 0 -4 2 -6 0c-6 -2 -10 -7 -10 -17c0 -12 11 -32 23 -32h6zM521 215l79 90l-28 6c-16 -16 -31 -26 -49 -30l2 -2l-15 -15zM410 309v-10l70 -80l12 45l-15 15l3 2c-18 6 -34 15 -48 31zM338 252c29 0 47 20 53 43v19
c-8 25 -24 41 -51 41c-29 0 -53 -23 -53 -52c0 -10 8 -28 14 -32c10 -14 23 -19 37 -19zM336 375c35 0 62 -22 70 -49l12 2c-12 18 -21 36 -29 57c-18 6 -28 19 -34 39v12c0 14 6 23 18 31v35c2 66 59 119 129 119h4c74 0 131 -53 131 -127l-2 -31c10 -6 15 -14 15 -24
c0 -31 -8 -46 -33 -56c-10 -21 -19 -41 -31 -57l92 -19c21 -4 45 -28 47 -49l13 -84v-12c0 -18 -19 -33 -37 -33l-402 6c-21 2 -35 14 -39 35c0 2 0 6 2 10l15 82l2 4c-8 12 -11 25 -11 43c0 33 33 66 68 66z" />
    <glyph glyph-name="businessman22" unicode="&#xe017;" 
d="M500 47c76 0 142 27 199 80l14 -16c-61 -57 -131 -86 -213 -86s-152 29 -213 86l14 16c57 -53 123 -80 199 -80zM404 604c-102 -37 -191 -137 -191 -272c0 -6 0 -13 2 -23l-18 -18c-2 16 -4 29 -4 41c0 145 100 256 211 293v-21zM596 625c111 -37 211 -148 211 -293
c0 -12 -2 -25 -4 -41l-18 18c2 10 2 17 2 23c0 135 -89 235 -191 272v21zM641 307c0 41 19 66 56 68c35 -2 53 -23 55 -68c4 -2 6 -4 6 -6c0 -12 -2 -18 -6 -18h-2c-6 -23 -28 -53 -55 -53c-25 0 -44 30 -50 53c-2 0 -6 4 -10 10v8c0 2 2 4 6 6zM738 223
c55 -8 82 -33 82 -78h-248c0 45 27 70 84 78l28 -55l4 35l-6 6h31l-8 -6l6 -35zM303 230c-25 0 -45 32 -51 53c-2 0 -6 4 -10 10v8c0 2 2 4 6 6v11c0 33 24 53 57 55c35 0 52 -21 54 -66c4 -2 6 -4 6 -6c0 -12 -2 -18 -8 -18h-2c-6 -21 -27 -53 -52 -53zM344 223
c57 -8 84 -33 84 -78h-248c0 45 27 70 82 78l27 -55l6 35l-8 6h31l-6 -6l4 -35zM553 633c-6 -21 -28 -51 -53 -51l-2 -2c-12 0 -21 6 -29 16c-10 10 -18 23 -20 37h-2c-6 0 -9 4 -9 12v1c0 6 1 8 5 10h2v6c0 33 22 63 55 63c35 -2 53 -24 55 -69h2c2 0 4 -2 4 -4
c0 -14 -2 -19 -8 -19zM486 518l4 35l-6 6h32l-6 -6l4 -35l27 54c55 -8 82 -33 82 -78h-246c0 45 27 70 82 78z" />
    <glyph glyph-name="businessman23" unicode="&#xe018;" 
d="M486 232h338v356h-648v-356h54c2 45 29 71 86 79l30 -57l4 37l-8 6h33l-6 -6l4 -37l29 57c57 -8 84 -34 84 -79zM854 203h-245v-37h24v-33h-266v33h24v37h-245v414h708v-414zM303 416c0 31 25 49 56 51c37 0 55 -24 57 -69c4 -2 6 -5 6 -13s-2 -12 -8 -12
c-8 -23 -30 -51 -55 -55c-27 4 -46 28 -52 55h-2c-6 0 -10 4 -10 12s2 11 6 13h2v18zM451 377v-31c6 6 15 15 33 31h-33zM496 387l4 4v43h-49v-47h45zM451 490v-47h49v47h-49zM451 543v-43h49v43h-49zM510 377v-41h47v41h-47zM510 434v-34l33 34h-33zM510 490v-47h45l2 2v45
h-47zM510 543v-43h47v43h-47zM566 377v-41h47v41h-47zM566 432v-45h47v27zM566 490v-47h47v47h-47zM566 543v-43h47v43h-47zM625 377v-41h45v41h-45zM625 410v-23h45v47h-2l-20 -34zM625 434v-12l20 -8l11 20h-31zM625 490v-47h37l8 14v33h-45zM625 543v-43h45v43h-45z
M682 377v-41h45v41h-45zM682 434v-47h45v47h-45zM682 455v-12h45v47h-24zM682 490v-15l7 15h-7zM682 543v-43h13l28 43h-41zM727 500v31l-18 -31h18zM613 426v8h-19zM557 387v45l-45 -45h45zM500 336v41c-23 -21 -39 -35 -45 -41h45zM441 326v229h297v-229h-297z" />
    <glyph glyph-name="businessman24" unicode="&#xe019;" 
d="M152 123c-16 2 -37 17 -37 33v10l14 82c6 23 24 43 47 49l97 21c-14 16 -25 36 -35 59c-21 6 -31 24 -33 49c0 14 4 23 14 29c-6 8 -8 17 -8 31s4 32 12 53c18 51 54 76 109 76c10 0 21 -2 31 -8c4 8 10 12 20 12l-4 -15c6 2 13 3 23 3s22 -3 36 -11
c29 -18 44 -43 44 -76c0 -14 -1 -29 -7 -45v-16c10 -6 15 -15 15 -29c0 -23 -10 -39 -31 -49c-10 -23 -19 -45 -33 -63l101 -19c20 -6 41 -27 47 -47l14 -84c2 -2 2 -6 2 -12c0 -18 -19 -31 -37 -31zM449 297l-37 8c-14 -14 -29 -24 -47 -26l10 -9l-16 -14l12 -49zM449 396
c10 0 24 20 24 32c0 10 -4 15 -10 17h-2l-2 -2v2l-2 -2l-2 16c-14 35 -32 55 -57 57c-10 -20 -21 -30 -39 -30c-6 0 -11 0 -17 2c-21 8 -41 12 -59 12c-29 0 -45 -12 -45 -33v-28c-2 2 -2 2 -4 2c-6 -6 -11 -3 -11 -11c0 -18 11 -37 29 -37c10 -29 23 -53 41 -71l8 -8
c14 -14 27 -19 45 -19s29 4 37 10c20 18 15 10 35 35c-14 -6 -25 -8 -35 -8s-16 0 -20 2c-2 -6 -5 -8 -11 -8c-10 0 -16 6 -16 16s6 15 16 15c6 0 11 -1 13 -7h8c27 0 47 5 59 17c6 10 9 19 11 29h6zM285 303l-33 -6l80 -90l10 47l-16 16l10 7c-18 2 -35 12 -51 26zM131 162
c0 -14 7 -23 21 -23h78v43c0 6 2 7 8 7s8 -1 8 -7v-43l213 2l-2 43c0 6 2 7 8 7s10 -1 10 -7v-43h78c10 0 19 9 19 17v8l-15 82c-2 16 -20 31 -34 35l-56 12l-110 -129c-2 -2 -3 -4 -5 -4s-4 2 -6 4l-114 127l-52 -12c-14 -4 -32 -19 -34 -35zM799 496h-82v84
c43 -2 80 -41 82 -84zM703 395c-49 0 -92 42 -92 91c0 51 41 90 90 92v-96h94c-2 -47 -43 -87 -92 -87zM525 627h360v-283h-184l-92 -92v92h-84v283zM859 369v233h-308v-233h84v-57l56 57h168z" />
    <glyph glyph-name="businessmen1" unicode="&#xe01a;" 
d="M162 279c-12 0 -23 10 -23 20v8l9 56c2 18 12 28 30 32l43 9l23 4c-10 12 -17 25 -23 41c-16 6 -24 15 -24 33c0 8 4 14 10 18c-2 6 -4 11 -4 21s2 22 8 38c10 33 33 50 68 50c8 0 16 -1 24 -5c4 6 9 7 15 7l-4 -9c4 2 8 2 14 2s16 -2 26 -8c21 -12 31 -30 31 -53
c0 -10 -2 -19 -6 -29v-10c6 -4 10 -8 10 -14c0 -21 -8 -33 -22 -39c-6 -16 -11 -29 -21 -41l68 -14c18 -4 27 -13 31 -31l10 -56v-8c0 -12 -11 -22 -23 -22h-270zM289 367l-10 10l6 6c-12 2 -23 7 -33 17l-23 -5l54 -61zM309 334l52 62l-23 4c-10 -10 -21 -15 -33 -17l7 -6
l-11 -10zM361 463c8 0 16 11 16 23c0 6 -4 8 -12 8v10c-10 23 -21 35 -37 37c-6 -14 -15 -20 -27 -20c-4 0 -12 2 -22 6s-21 4 -31 4c-18 0 -25 -7 -27 -21v-20c-2 2 -2 2 -4 2c-6 -2 -8 -4 -8 -8c0 -14 12 -25 20 -25h1c6 -20 20 -39 38 -57c10 -6 17 -7 27 -7
c16 0 25 7 33 13c2 2 2 4 4 6c12 12 19 28 25 49h4zM148 305c0 -8 6 -16 14 -16h53v29c0 4 2 6 6 6s6 -2 6 -6v-29l140 2v27c0 4 2 6 6 6s6 -2 6 -6v-27h53c6 0 15 4 11 10v6l-9 56c-2 12 -10 20 -22 22l-39 8l-72 -86c-2 -2 -2 -2 -4 -2s-4 0 -4 2l-76 86l-37 -8
c-12 -2 -20 -10 -22 -24zM533 41c-14 0 -25 9 -25 21v8l10 57c2 18 13 27 31 31l41 10l23 4c-10 12 -17 25 -23 41c-14 6 -22 15 -22 33c0 8 4 14 10 18c-4 6 -6 13 -6 25s2 21 6 31c10 33 35 51 72 51c8 0 16 -2 24 -4c2 4 6 6 8 6h6l-2 -10c4 2 7 2 13 2s14 -2 24 -8
c21 -12 31 -29 31 -50c0 -10 -2 -20 -6 -30v-9c6 -6 10 -14 10 -22c0 -18 -6 -27 -20 -31c-6 -16 -13 -29 -23 -41l68 -14c18 -4 29 -15 31 -33l10 -55v-8c0 -12 -11 -21 -23 -21zM660 131l-10 10l6 5c-12 2 -23 8 -33 18l-23 -6l52 -60zM680 98l50 62l-23 4
c-10 -10 -21 -16 -31 -18l6 -5l-10 -10zM672 285c-12 0 -37 10 -51 10c-20 0 -29 -8 -31 -24v-17h-4c-4 -2 -6 -6 -6 -12c0 -10 12 -19 20 -19c6 -20 15 -35 27 -47c6 -12 17 -20 37 -20c10 0 18 2 24 8c18 14 31 36 41 61c10 0 19 9 19 21c0 8 -2 10 -8 12h-2
c-2 0 -2 0 -2 -2v12c-10 23 -21 35 -39 37c-6 -14 -15 -20 -25 -20zM520 62c0 -6 3 -9 13 -9h51v29c0 4 2 6 6 6s6 -2 6 -6v-29l142 2v27c0 4 0 6 4 6s6 -2 6 -6v-27h53c10 0 13 3 13 11v4l-9 55c-2 14 -10 21 -24 23l-37 8l-74 -86c-2 -2 -2 -2 -4 -2s-2 0 -4 2l-76 86
l-35 -8c-14 -2 -20 -9 -22 -23l-9 -57v-6zM863 436h-21v252h-369v21h390v-273zM445 670h379v-262h-230l-82 -84v84h-67v262zM543 531c0 -47 39 -88 86 -88c49 0 88 39 90 86h-90v90c-47 0 -86 -41 -86 -88zM645 541h78c-2 45 -37 76 -78 82v-82z" />
    <glyph glyph-name="businessmen2" unicode="&#xe01b;" 
d="M623 428h-246c0 43 27 68 82 76l27 -55l4 37l-6 4h32l-6 -4l4 -37l27 55c55 -6 82 -31 82 -76zM500 514c-25 0 -45 29 -51 52h-8c-2 2 -3 6 -3 8v8c0 4 1 6 5 6h2v6c0 33 22 62 55 62c35 -2 53 -23 55 -68l2 2c2 0 4 -2 4 -4v-8c-2 -8 -4 -12 -8 -12
c-6 -21 -28 -52 -53 -52zM324 172c55 -8 82 -33 82 -78h-246c0 45 27 70 82 78l28 -55l3 35l-5 6h31l-6 -6l4 -35zM229 268c0 33 23 52 56 54c33 0 51 -21 53 -66h2c2 -2 4 -6 4 -14s-2 -10 -6 -10h-2c-6 -21 -28 -52 -53 -52s-45 29 -51 52h-2c-6 4 -7 8 -7 14s2 8 4 10h2
v12zM758 172c55 -8 82 -33 82 -78h-246c0 45 27 70 82 78l27 -55l4 35l-6 6h31l-5 -6l3 -35zM666 232h-4c-4 0 -6 2 -6 6s0 6 -2 8c0 6 2 8 6 10h2v12c0 33 24 52 55 54c35 0 52 -21 54 -66h2c2 -2 4 -6 4 -14s-1 -10 -7 -10c-6 -21 -28 -52 -53 -52s-45 29 -51 52zM510 293
l111 -64l-10 -18l-111 64l-111 -64l-10 18l111 64v103h20v-103z" />
    <glyph glyph-name="businessmen3" unicode="&#xe01c;" 
d="M623 596c-47 0 -86 -41 -86 -88s41 -86 88 -86s86 39 88 84h-90v90zM639 520h78c-2 43 -37 74 -78 80v-80zM506 385h-67v261h379v-261h-230l-82 -82v82zM467 686h390v-274h-21v254h-369v20zM590 283c0 47 25 80 72 80c45 -2 68 -31 70 -88h2c6 -2 8 -3 8 -9v-6
c-2 -10 -6 -14 -12 -14c-8 -29 -37 -68 -70 -68s-58 39 -66 68h-2c-6 2 -10 2 -10 12c0 6 0 8 -2 8c0 6 2 7 8 9h2v8zM715 166c72 -10 107 -45 107 -102h-322c0 57 35 92 107 102l38 -70l5 45l-9 7h41l-8 -7l4 -45zM305 336c-33 4 -59 39 -67 70h-2c-2 -2 -2 -2 -4 -2
c-6 0 -7 6 -7 16s1 16 7 16v7c2 47 28 80 75 80c45 -2 68 -30 70 -87c6 -2 8 -4 8 -10c-2 -6 -4 -20 -12 -20c-8 -31 -35 -66 -68 -70zM467 225h-324c0 57 37 91 109 101l35 -70l6 45l-10 8h41l-8 -8l6 -45l35 70c72 -10 108 -44 110 -101z" />
    <glyph glyph-name="call14" unicode="&#xe01d;" 
d="M609 195c2 0 8 -5 8 -7v-42h74c12 0 22 10 18 22l-14 80c-2 18 -16 29 -41 35l-43 8l-103 -121c-2 -2 -4 -2 -6 -2s-4 0 -6 2l-107 121l-43 -8c-25 -6 -39 -17 -41 -35l-14 -80c-4 -12 6 -22 18 -22h74v42c0 6 2 7 8 7s9 -1 9 -7v-42h200v42c0 6 3 7 9 7zM600 445h-12
v-33h-80v35h-16v-35h-80v33l-6 2h-6v-17c-2 2 -3 2 -5 2c-6 -2 -10 -8 -10 -16c0 -14 11 -31 23 -31h4c6 -23 19 -45 39 -65c4 -4 12 -7 16 -11l-61 -14c23 -29 49 -57 74 -84l10 45l2 8l-15 13l23 24l23 -24l-15 -13l12 -55l74 86l-63 14c2 2 6 3 10 5c2 2 4 6 10 10
s11 12 17 22c-12 -6 -23 -8 -33 -8h-21c-4 -4 -8 -6 -14 -6c-10 0 -16 6 -16 16s6 15 16 15c6 0 12 -2 16 -8h13c25 0 45 6 55 20c2 6 4 8 4 10h4c12 0 23 17 23 31c0 6 -4 14 -10 16c-2 0 -3 0 -5 -2v15zM422 447v-23h60v23h-60zM518 447v-23h60v21h-49v12h-8l-1 -10h-2z
M529 508l-6 -39h6v39zM500 619c104 0 154 -69 154 -180v-140l14 -2c20 -6 41 -26 43 -47l14 -78c2 -2 2 -6 2 -12c0 -16 -18 -29 -36 -29h-382c-16 0 -36 13 -36 27c0 6 0 10 2 14l14 78c2 21 23 41 43 47l14 2v140c0 111 50 180 154 180z" />
    <glyph glyph-name="couple33" unicode="&#xe01e;" 
d="M484 111c-98 6 -172 69 -207 143l-17 -43l-16 6l29 70l71 -27l-6 -18l-43 18c31 -66 98 -119 182 -131zM508 625c86 -21 157 -88 180 -172l23 39l16 -10l-39 -64l-65 39l8 16l41 -26c-23 76 -84 137 -160 158zM520 72h257c-2 43 -19 77 -52 98l-71 -82c-2 -2 -4 -2 -6 -2
s-2 0 -2 2l-74 82c-33 -25 -50 -57 -52 -98zM568 248c0 -6 12 -18 18 -14c4 -16 13 -31 27 -45c-10 -2 -21 -7 -31 -13l31 -33l22 -26l6 26l2 11l-10 12l15 16l10 -10l8 -6l-12 -12l4 -11l6 -28l22 28l29 33c-10 6 -19 11 -29 13c10 10 21 25 27 45h4c8 0 15 14 15 24
c0 4 -1 8 -5 10h-6v13c-23 6 -41 15 -53 31c-20 -23 -47 -35 -82 -35h-10v-9h-4c-6 -2 -6 -8 -4 -20zM648 404c76 0 112 -49 112 -131v-123c20 -25 29 -53 29 -84v-5h-281v5c0 31 9 59 29 84v123c0 82 35 131 111 131zM480 357c-2 41 -19 73 -52 98c-25 -25 -50 -55 -73 -82
c0 -2 -1 -2 -3 -2s-2 0 -4 2l-47 55l-26 27c-33 -21 -50 -55 -52 -98h257zM387 475c6 6 8 7 8 9c10 12 17 24 19 36c6 -4 18 7 18 13c2 12 2 18 -4 20h-4v13c-23 6 -41 16 -55 32c-18 -23 -45 -36 -82 -36h-8v-9h-6c-4 -2 -5 -6 -5 -10c0 -10 9 -23 17 -23h2
c6 -18 16 -28 24 -40c2 -2 1 -3 3 -5c-10 -2 -19 -8 -29 -14l53 -59l4 26l4 11l-12 12l8 6l10 10l15 -16l-10 -12l2 -11l6 -28l53 61c-10 6 -21 12 -31 14zM352 689c76 0 111 -48 111 -130v-123c20 -25 29 -53 29 -84v-6h-281v6c0 31 9 59 29 84v123c0 82 36 130 112 130z
" />
    <glyph glyph-name="couple34" unicode="&#xe01f;" 
d="M373 574c82 0 123 -54 123 -142v-100h-90c25 25 39 61 43 106c-25 6 -46 17 -60 35c-21 -25 -51 -39 -90 -39c4 -43 18 -77 41 -102h-90v100c0 88 41 142 123 142zM682 311c96 -14 144 -59 144 -135h-431c0 76 48 121 144 135l47 -96l8 62l-12 10h55l-12 -10l8 -62z
M314 264l-21 -22l66 -66h-185c0 74 48 115 146 125l-37 -37h31zM609 324c-45 4 -77 51 -89 92c-10 0 -16 10 -16 31c0 6 2 8 8 10h2v14c0 62 38 103 97 103c61 -2 94 -41 96 -117c6 -2 10 -6 10 -14c0 -18 -6 -27 -16 -27c-10 -41 -49 -88 -92 -92z" />
    <glyph glyph-name="female34" unicode="&#xe020;" 
d="M834 578h-668v-406h668v406zM873 619v-488h-746v488h746zM779 291v-39h-297v39h297zM211 262c0 -10 4 -14 12 -14h41v23c0 2 2 4 4 4s3 -2 3 -4v-23h112v23c0 2 0 4 4 4s6 -2 6 -4v-23h41c6 0 9 4 9 14l-7 43c-2 14 -12 15 -24 19l-23 4l-57 -66c-2 -2 -2 -2 -4 -2
s-2 0 -4 2l-41 49l-17 17l-24 -4c-12 -4 -19 -5 -23 -19zM266 391c2 -10 5 -12 13 -10c4 -14 8 -23 14 -29l12 -10c2 -2 4 -2 6 -4l-36 -8l20 -19l21 -26l6 26v1l-8 10l12 10l2 2l12 -12l-8 -10v-1l6 -28l41 49l-33 6l8 8c12 10 19 21 23 35h2c8 0 12 7 12 15
c0 6 -2 10 -8 10v8h-39v33l-6 -31h-67v-10h-1c-6 -2 -6 -5 -4 -15zM328 510c57 0 84 -39 84 -100v-76c18 -4 27 -7 31 -27l8 -43c2 -12 -5 -24 -17 -24h-211c-12 0 -22 10 -20 24l8 43c4 20 13 23 31 27v76c0 61 29 100 86 100zM779 498v-39h-297v39h297zM779 355h-297v40
h297v-40z" />
    <glyph glyph-name="female35" unicode="&#xe021;" 
d="M373 217v-20h-39v-41h-22v41h-39v20h38c2 6 1 11 1 13v26h22v-39h39zM521 225c51 0 102 68 114 111c4 -2 9 2 19 8s14 13 14 27s-4 23 -10 25c-2 0 -6 1 -8 -1v25c-41 10 -74 30 -95 59c-33 -45 -81 -67 -145 -67h-17v-17c-2 2 -6 1 -8 1c-6 -2 -10 -5 -10 -13
c0 -18 4 -31 16 -41c8 -6 13 -8 17 -6c14 -41 62 -111 113 -111zM387 207c0 35 -30 63 -65 63h-6c-29 -2 -56 -32 -56 -63c0 -39 27 -64 70 -64c29 0 57 33 57 64zM238 207c0 45 37 80 80 82c0 47 2 86 6 117c10 154 74 233 197 233s188 -79 198 -233c0 -21 5 -84 15 -191
c6 -49 14 -84 26 -104h-477c2 4 6 10 8 18c-35 14 -53 41 -53 78z" />
    <glyph glyph-name="female36" unicode="&#xe022;" 
d="M318 188h-19v33h-31v19h31v31h19v-31h32v-19h-32v-33zM764 115h-243l88 88l-27 27h39l-49 49c127 -14 192 -68 192 -164zM504 635c107 0 160 -71 160 -186v-129h-115c31 33 49 78 53 137c-33 6 -61 22 -79 45c-25 -33 -64 -51 -115 -51h-2c6 -57 24 -100 55 -131h-117
v129c0 115 53 186 160 186zM307 178c29 0 52 22 52 49s-19 54 -48 54s-53 -22 -53 -49s20 -54 49 -54zM236 230c0 41 35 71 78 71c23 0 41 -12 55 -33c21 6 44 9 67 11l-49 -49h39l-28 -27l88 -88h-240c0 23 4 45 12 65c-14 14 -22 30 -22 50z" />
    <glyph glyph-name="female37" unicode="&#xe023;" 
d="M504 615c74 0 111 -49 111 -129v-103l4 -2c14 -2 23 -10 29 -22c21 29 32 65 32 102c0 98 -82 178 -180 178s-180 -80 -180 -178c0 -37 11 -73 32 -102c6 12 15 20 29 22l14 4v101c0 80 35 129 109 129zM420 473c0 -14 9 -26 19 -26c6 -18 16 -33 32 -47c6 -6 9 -7 11 -9
h-3l-30 -6c16 -14 31 -20 51 -20s37 6 51 18l-30 8c2 2 10 5 12 7c18 14 27 31 33 49c10 0 20 14 20 24c0 4 -2 7 -8 9h-4v10h-49v45l-7 -43h-86v-12h-6c-4 -2 -6 -3 -6 -7zM500 354c-25 0 -46 9 -64 27l-41 -8l-12 -4c-12 -2 -20 -9 -22 -21c14 -20 34 -35 55 -45v4
c0 4 2 5 6 5s6 -1 6 -5v-10c23 -10 47 -16 72 -16s49 6 72 16v10c0 4 2 5 6 5s6 -1 6 -5v-4c21 10 39 25 55 45c-2 12 -10 19 -22 21l-2 2l-51 10c-18 -18 -39 -27 -64 -27zM500 695c68 0 125 -23 172 -70s72 -106 72 -174c0 -76 -51 -168 -84 -217
c-31 -43 -100 -123 -133 -154c-12 -10 -21 -19 -27 -25l-25 23c-62 57 -151 164 -194 262c-18 39 -25 76 -25 111c0 68 25 127 72 174s104 70 172 70z" />
    <glyph glyph-name="female38" unicode="&#xe024;" 
d="M250 246c2 0 2 -2 2 -4v-15l-6 -2v17c0 2 2 4 4 4zM553 266c4 0 6 -2 6 -6v-26l-12 2v24c0 4 2 6 6 6zM807 348l50 -28l-25 -54l-16 7l12 26l-256 -100l-166 35l-260 -66l-3 20l263 66l164 -33l250 97l-21 12zM252 352c0 2 -2 0 -4 0c-4 0 -4 -24 10 -20
c4 -12 9 -21 19 -31c2 0 4 -2 8 -6l-21 -4l15 -18l20 -19l17 19l16 14v4l-20 4h-1c2 2 5 4 7 6c10 10 18 19 22 31c6 -2 10 0 12 8c2 10 -2 18 -8 12v7h-33v28l-6 -28h-53v-7zM393 393c-4 -2 -6 -4 -6 -8c0 -8 9 -20 15 -20c8 -21 19 -37 37 -47h-1l-28 -6l45 -46l16 17
l4 20c2 4 3 7 5 13l-7 2h-2c2 2 4 2 6 4c16 10 25 25 29 43c4 -2 8 0 12 6v22h-4v7h-45v38l-6 -36h-67v-9h-3zM719 430c0 4 -6 15 -12 9v10h-57v47l-7 -45h-84v-12c-6 6 -12 -5 -12 -9c0 -10 9 -24 17 -24h2c8 -23 24 -48 47 -60h-2l-37 -8l59 -57l58 57l-35 8h-4l14 9
c16 16 27 33 33 51h4c8 0 16 14 16 24zM633 582c76 0 115 -53 115 -135v-107l10 -4c12 -2 21 -10 29 -22l-12 -3c-6 8 -11 11 -19 13l-51 12l-68 -68c-2 -2 -2 -2 -4 -2s-2 0 -4 2l-68 68l-16 -4l-27 -6c-18 -4 -28 -11 -32 -25v-2l-2 -18l-5 -31l-12 2l2 16l-10 -12h-8
l-53 55l-29 -6l-12 -4c-6 -2 -11 -8 -17 -18l-6 -37l-12 -2l6 29l-27 -27h-4l-43 43l-25 -6c-10 -4 -18 -3 -20 -15l-6 -38c-2 -6 4 -9 8 -9h18l-24 -6c-8 0 -12 11 -10 17l6 36c4 16 14 19 28 23v66c0 55 23 82 70 82c33 0 54 -15 64 -44v3c0 66 31 106 92 106
c27 0 49 -7 65 -25c10 68 47 103 113 103z" />
    <glyph glyph-name="female39" unicode="&#xe025;" 
d="M639 256c-12 2 -22 7 -28 15c-10 -12 -23 -17 -41 -17h-2c2 -21 10 -37 20 -47h-41v45c0 45 19 68 58 68s57 -23 57 -68v-45h-43c12 12 18 28 20 49zM576 174l-10 -10l32 -31h-86c0 35 23 54 68 58l-18 -17h14zM605 80c74 0 133 61 133 135s-59 133 -133 133
s-134 -59 -134 -133s60 -135 134 -135zM359 326c55 0 100 45 100 100s-45 101 -100 101s-101 -46 -101 -101s46 -100 101 -100zM500 602c0 -39 35 -75 74 -75s74 36 74 75s-35 74 -74 74s-74 -35 -74 -74zM605 64c-76 0 -150 69 -150 143c0 37 9 69 27 96l-48 39
c-21 -18 -48 -28 -77 -28c-61 0 -111 51 -111 112s50 113 109 113c29 0 56 -9 77 -27c37 29 60 44 68 50c-6 14 -10 29 -10 47c0 39 43 77 84 77c45 0 84 -39 84 -84c0 -47 -39 -84 -88 -84c-25 0 -46 12 -64 35c-6 -2 -30 -18 -67 -47c21 -21 32 -47 32 -76s-8 -55 -26 -76
l49 -40c29 33 65 49 108 49c82 0 152 -66 152 -148s-67 -151 -149 -151zM629 191c45 -4 68 -23 68 -58h-86l32 31l-10 10h13zM377 410c35 -4 53 -20 53 -45h-67l24 24l-8 7h12zM598 580l-10 10c25 -2 37 -13 37 -33h-49l18 17l-4 6h8zM555 625c0 -12 3 -21 9 -27h-23v25
c0 25 12 39 33 39s31 -14 31 -39v-25h-23c6 6 10 15 12 27c-8 2 -14 4 -16 10c-6 -6 -13 -10 -23 -10zM553 574l17 -17h-49c0 20 15 31 40 33l-10 -10h8zM385 457c-10 2 -16 8 -22 14c-6 -10 -17 -14 -31 -14c2 -16 6 -27 16 -37h-34v35c0 33 16 51 45 51s43 -18 43 -51v-35
h-31c8 10 12 21 14 37zM330 389l24 -24h-65c0 25 18 41 51 45l-14 -14h12z" />
    <glyph glyph-name="female40" unicode="&#xe026;" 
d="M336 258l14 -16l-53 -51l-22 20l-11 8l6 8l7 7l20 -15l25 25l12 10zM504 635c107 0 160 -71 160 -186v-129h-115c31 33 49 78 53 137c-33 6 -61 22 -79 45c-25 -33 -64 -51 -115 -51h-2c6 -57 24 -100 55 -131h-117v129c0 115 53 186 160 186zM311 281
c-29 0 -53 -22 -53 -49s20 -54 49 -54s52 22 52 49s-19 54 -48 54zM236 230c0 41 33 71 76 71c23 0 43 -12 57 -33c21 6 44 9 67 11l-49 -49h39l-28 -27l88 -88h-240c0 23 4 45 12 65c-14 14 -22 30 -22 50zM764 115h-243l88 88l-27 27h39l-49 49c127 -14 192 -68 192 -164z
" />
    <glyph glyph-name="female41" unicode="&#xe027;" 
d="M289 230c6 4 10 8 14 14l29 -29l27 29l14 -14l-14 -15l-13 -14l27 -27l-6 -8l-8 -6l-27 28l-29 -28l-14 14l12 10l15 17l-4 6l-7 6l-6 8zM650 410c0 14 -3 29 -11 29c-2 0 -4 -1 -6 -3v25c-41 10 -75 28 -98 57c-33 -41 -80 -63 -144 -63l-16 -2v-17c-8 8 -18 -2 -18 -12
c0 -20 0 -29 14 -39c8 -6 14 -8 20 -6c6 -21 17 -43 33 -63c2 -4 6 -5 8 -7c2 -4 5 -8 7 -10c-18 -6 -36 -14 -54 -24l94 -105l9 45l6 23l-19 18l29 29l17 -15l12 -14l-19 -18l6 -23l9 -47l92 107c-18 10 -35 18 -55 24c21 21 43 53 51 78c2 0 10 4 20 10s13 13 13 23z
M332 266c-39 0 -64 -30 -64 -65c0 -14 3 -25 11 -37l8 -8c14 -12 27 -17 45 -17c33 0 63 29 63 62v14c-6 23 -22 39 -45 47c-4 2 -8 2 -12 2c-2 2 -2 2 -4 2h-2zM416 201c0 -43 -37 -84 -80 -84c-20 0 -39 6 -55 18c-4 -14 -6 -29 -6 -45h457c-4 72 -44 139 -93 176
l-125 -147c-2 -2 -6 -4 -10 -4s-4 2 -6 4l-84 94c2 -6 2 -10 2 -12zM504 680c133 0 197 -88 197 -231v-219c33 -45 51 -93 51 -150v-10h-498v10c0 25 4 49 12 70c-12 16 -18 33 -18 51c0 39 28 68 57 80v168c0 80 17 139 54 176s86 55 145 55z" />
    <glyph glyph-name="female42" unicode="&#xe028;" 
d="M162 363c0 -8 8 -19 16 -19c4 -14 9 -24 17 -32l14 -13l12 -8h-4l-33 -8l41 -43l4 22l1 6l-9 7l11 14l2 2l16 -16l-10 -7v-6l6 -24l22 24l17 21l-31 8h-6c21 16 37 33 43 53c8 0 18 9 18 19c0 4 -4 10 -8 10h-2v10h-45v39l-6 -37h-78v-12l-2 2v-2c-4 -2 -6 -4 -6 -10z
M584 385c10 0 21 15 21 25c0 8 -1 16 -7 18h-6v13h-65v57l-9 -55h-110v-15h-6c-6 -2 -7 -8 -7 -14c0 -14 9 -29 19 -29h4c8 -23 24 -51 45 -65l12 -8h-2l-55 -11c23 -23 43 -47 64 -72l10 39v5l-13 14l21 22l21 -22l-13 -14v-5l10 -41l64 74l-55 11h-2c8 6 14 10 22 16
c18 18 29 37 35 57h2zM699 375c-4 -4 -8 -4 -8 -10v-4c4 -12 10 -17 18 -17c4 -14 11 -25 21 -35c4 -6 12 -12 22 -18h-6l-31 -8l39 -43l6 22v6l-10 7l16 16l13 -16l-9 -7l1 -6l6 -24l39 45l-33 8h-4l12 8c2 2 6 6 8 10c12 10 19 21 23 35c8 0 16 11 16 19c0 6 -2 8 -6 10v2
l-2 -2v10h-47v39l-6 -37h-76v-12zM105 205c0 -6 2 -8 8 -8h43v22c0 6 4 10 10 10s10 -4 10 -10v-22h115l2 18v4c0 2 0 2 2 4l8 39c2 6 4 11 6 17h-2c-20 -25 -42 -49 -63 -74c-2 -2 -6 -4 -10 -4s-3 0 -5 2l-53 59l-14 17l-25 -6h-6c-10 -2 -14 -7 -16 -17zM676 168
c10 0 13 4 13 10h2v10l-2 9l-3 16l-8 45v4h-2c-2 6 -4 9 -6 13c-2 0 -4 2 -10 8c-2 2 -6 2 -10 4h-4l-3 2l-39 8l-94 -111c-2 -2 -6 -4 -10 -4s-4 2 -6 4l-98 111l-39 -8l-3 -2h-4c-10 -2 -14 -6 -16 -10c-2 -2 -2 -2 -4 -2c-2 -4 -4 -7 -6 -13h-2v-4l-8 -43l-3 -18l-2 -9
v-10h2c0 -6 3 -10 13 -10h67v35c0 6 3 10 9 10s10 -4 10 -10v-35h180v35c0 6 4 10 10 10s9 -4 9 -10v-35h67zM834 229c6 0 10 -4 10 -10v-22h43c6 0 8 2 8 8l-10 51c-2 10 -6 15 -16 17h-6l-25 6c-20 -27 -44 -49 -65 -74c-2 -2 -3 -4 -7 -4s-6 0 -8 2l-67 76
c2 -6 4 -11 6 -17l8 -39c2 -2 2 -2 2 -4v-4l2 -18h115v22c0 6 4 10 10 10zM766 494c66 0 97 -45 97 -115v-84c23 -4 37 -12 41 -35l10 -51v-4c0 -16 -11 -27 -27 -27h-176c-2 -20 -14 -30 -35 -30h-352c-21 0 -33 10 -35 30h-176c-16 0 -27 11 -27 27v4l10 51
c4 23 18 31 41 35v84c0 70 31 115 97 115s100 -45 100 -115v-78c4 2 8 4 10 6l13 2v127c0 104 47 168 143 168s143 -64 143 -168v-127l13 -2c2 -2 6 -4 10 -6v78c0 70 34 115 100 115z" />
    <glyph glyph-name="female43" unicode="&#xe029;" 
d="M289 221v39h20v-39h-20zM586 102c0 -6 4 -10 10 -10h33v17c0 2 2 4 4 4s4 -2 4 -4v-17h93v17c0 2 2 4 4 4s4 -2 4 -4v-17h35c6 0 10 4 10 10l-8 37c-2 8 -5 13 -13 15h-6l-20 6l-48 -58h-6l-36 41l-13 17l-22 -6h-4c-8 -2 -13 -5 -15 -15zM635 225c-10 -4 0 -24 8 -22
c4 -12 9 -21 19 -29c2 -4 6 -6 8 -6l-29 -8l35 -39l4 22v3l-6 6l8 10l2 2l11 -12l-7 -6l1 -3l4 -22l36 39l-30 8l4 2l10 10c6 6 10 13 14 23c6 -2 9 0 11 8c4 12 0 14 -8 14v5h-33v30l-4 -28h-56v-7h-2zM789 104c2 -10 -6 -20 -16 -20h-177c-12 0 -22 8 -18 20l8 37
c2 12 7 19 19 21h6v67c0 57 24 83 73 83s72 -26 72 -83v-67h8c10 -2 17 -9 19 -21zM359 150v20h39v-20h-39zM217 455c0 -6 4 -10 10 -10h35v18c0 2 2 4 4 4s4 -2 4 -4v-18h93v18c0 2 2 4 4 4s4 -2 4 -4v-18h33c6 0 10 4 10 10l-6 37c-2 8 -7 14 -15 16h-4l-22 4l-49 -57h-4
l-50 57l-20 -4h-6c-8 -2 -11 -8 -13 -16zM330 520c10 10 21 17 27 37c8 -2 16 17 8 21h-2v6h-33v29l-6 -27h-54v-8c-8 0 -10 -2 -6 -14c2 -6 3 -9 9 -7c8 -21 16 -25 28 -37l-30 -6l36 -39l4 21l1 4l-7 6l11 12l10 -12l-6 -6v-4l4 -21l35 39zM389 516c14 -4 23 -6 25 -22
l8 -37c4 -12 -6 -19 -18 -19h-177c-10 0 -18 9 -16 19l6 37c4 16 13 18 27 22v66c0 57 23 84 72 84s73 -27 73 -84v-66zM439 150v20h40v-20h-40zM520 150v20h39v-20h-39zM439 551v19h40v-19h-40zM689 541v10h-9v19h29v-29h-20zM689 381v39h20v-39h-20zM709 500v-39h-20v39
h20zM520 551v19h39v-19h-39zM289 301v39h20v-39h-20zM309 420v-39h-20v39h20zM639 570v-19h-39v19h39zM309 170h9v-20h-29v30h20v-10z" />
    <glyph glyph-name="female44" unicode="&#xe02a;" 
d="M699 104l14 -14c-61 -59 -131 -88 -213 -88s-152 29 -213 88l14 14c57 -53 123 -81 199 -81s142 28 199 81zM404 580c-102 -37 -191 -136 -191 -271c0 -6 0 -14 2 -24l-18 -17c-2 16 -4 29 -4 41c0 145 100 256 211 293v-22zM596 602c111 -37 211 -148 211 -293
c0 -12 -2 -25 -4 -41l-18 17c2 10 2 18 2 24c0 135 -89 234 -191 271v22zM781 127c-2 29 -20 60 -41 74c-18 -21 -36 -41 -54 -62c0 -2 0 -2 -2 -2s-2 0 -4 2l-55 62c-21 -14 -39 -45 -41 -74h197zM670 199c6 2 8 8 12 12l7 -8l6 -4l-7 -10l5 -29l18 20l21 27
c-6 4 -13 8 -23 10c10 10 17 21 21 33c8 -2 14 2 16 12s0 13 -6 15l-2 -2v10c-18 6 -31 14 -41 26c-14 -18 -35 -28 -62 -28h-8v-8c-6 6 -10 -1 -6 -13c2 -10 6 -14 14 -12c2 -10 7 -17 13 -25c0 -2 0 -4 2 -4s2 -2 4 -4c-8 -2 -15 -6 -23 -10l23 -27l18 -18l4 18l2 9z
M684 381c57 0 84 -39 84 -100v-93c14 -20 21 -42 21 -65v-4h-213v4c0 23 8 45 22 65v93c0 61 29 100 86 100zM219 127h197c-2 29 -20 60 -41 74l-53 -62c-2 -2 -2 -2 -4 -2s-2 0 -4 2l-54 62c-21 -14 -39 -45 -41 -74zM348 221c6 0 15 21 19 29c6 -2 10 2 12 12
c2 12 0 19 -6 13v10c-18 6 -31 14 -41 26c-14 -18 -35 -28 -62 -28h-8v-8l-2 2c-6 -2 -6 -5 -4 -15s6 -14 14 -12c2 -10 7 -19 17 -29c0 -2 0 -2 2 -4c-8 -2 -15 -6 -21 -10l21 -27l18 -18l4 18l1 9l-7 10l6 4l7 8c4 -4 6 -10 12 -12l-8 -10l6 -29l41 47c-8 4 -15 8 -23 10
c0 2 0 2 2 4zM316 381c57 0 86 -39 86 -100v-93c14 -20 22 -42 22 -65v-4h-213v4c0 23 7 45 21 65v93c0 61 27 100 84 100zM441 568c-20 -14 -39 -39 -39 -74h196c0 35 -21 58 -39 74l-55 -62c-2 -2 -2 -2 -4 -2s-2 0 -2 2zM562 635c0 4 -3 12 -7 8v9c-18 4 -31 12 -41 26
c-14 -18 -36 -28 -63 -28h-6v-7c-6 6 -9 -6 -7 -14c2 -10 7 -14 13 -12c2 -10 8 -17 16 -27c0 -2 0 -2 2 -2c2 -2 2 -4 4 -4c-8 -2 -16 -6 -24 -10l41 -47l6 30l-8 7l4 6l8 8l8 -8l4 -6l-8 -7l2 -10l6 -20l39 47c-8 4 -16 8 -24 10c2 0 2 2 4 4c10 10 16 19 18 29h2
c6 0 11 10 11 18zM500 748c59 0 86 -39 86 -100v-93c14 -20 21 -42 21 -67v-4h-214v4c0 25 7 47 21 67v93c0 61 27 100 86 100z" />
    <glyph glyph-name="female45" unicode="&#xe02b;" 
d="M750 586c37 0 64 -28 64 -65v-101c0 -37 -27 -65 -64 -65h-31l-67 -66v66h-4c-37 0 -64 28 -64 65v101c0 37 27 65 64 65h102zM584 156c10 0 18 10 18 20v2l-14 76c-2 18 -11 27 -29 31l-51 10l-100 -115c-2 -2 -4 -2 -6 -2s-4 0 -6 2l-101 115l-51 -10
c-14 -2 -27 -17 -29 -31l-14 -76v-4c0 -10 10 -18 20 -18h70v39c0 6 2 8 8 8s8 -2 8 -8v-39h191v39c0 6 2 8 6 8s8 -2 8 -8v-39h72zM305 430c-7 -3 -12 -5 -12 -14c0 -14 9 -31 21 -31h4c8 -29 24 -53 45 -69c2 -2 6 -3 8 -5l-59 -12l71 -80l10 43l2 8l-16 13l19 18l4 4
l22 -22l-16 -13l12 -53l70 82l-58 12c2 2 5 3 7 5c23 18 39 40 47 69h4c10 0 20 17 20 31c0 6 -2 10 -8 12l-2 2l-4 -2v13h-66v61l-10 -59h-113v-15zM402 607c98 0 147 -64 147 -169v-135l12 -2c21 -6 37 -24 43 -45l13 -74v-4c0 -20 -15 -35 -33 -35h-363
c-18 0 -35 11 -35 27c0 6 0 10 2 12l11 74c6 21 22 39 43 45l12 2v135c0 105 50 169 148 169z" />
    <glyph glyph-name="female46" unicode="&#xe02c;" 
d="M617 223l-8 -16l-111 66l-113 -66l-8 16l113 64v104h16v-104zM625 86h197c0 35 -21 58 -39 74l-54 -62c-2 -2 -2 -2 -4 -2s-2 0 -2 2l-57 62c-25 -18 -39 -43 -41 -74zM752 176c8 10 17 21 21 33c6 -2 10 2 12 10s2 15 -2 17c-2 0 -2 0 -4 -2v10c-18 6 -31 14 -41 26
c-14 -18 -35 -28 -62 -28h-8v-8l-2 2c-6 -2 -8 -5 -6 -15s8 -14 16 -12c2 -10 6 -17 12 -23s7 -8 7 -10c-8 -2 -15 -6 -21 -10l39 -47l6 29l-8 8l14 14l7 -8l4 -6l-7 -8l5 -29l41 47c-8 4 -15 8 -23 10zM723 340c57 0 88 -39 88 -100v-94c14 -20 21 -41 21 -66v-4h-215v4
c0 25 8 46 22 66v94c0 61 27 100 84 100zM375 86c-2 31 -16 56 -41 74c-18 -21 -37 -41 -55 -62c0 -2 0 -2 -2 -2s-2 0 -4 2l-56 62c-18 -16 -39 -39 -39 -74h197zM303 176c12 12 19 23 21 33c8 -2 14 2 16 10s0 15 -6 17l-2 -2v10c-18 6 -33 14 -43 26
c-14 -18 -33 -28 -62 -28h-6v-8c-6 6 -8 -1 -6 -13c2 -10 6 -14 12 -12c2 -10 7 -17 15 -25c0 -2 2 -4 6 -8c-8 -2 -15 -6 -23 -10l41 -47l5 29l-7 8l4 6l7 8l14 -14l-10 -8l4 -9l4 -20l18 20l21 27c-6 4 -13 8 -23 10zM277 340c57 0 84 -39 84 -100v-94
c14 -20 22 -41 22 -66v-4h-215v4c0 25 7 46 21 66v94c0 61 31 100 88 100zM502 430h-8l-35 43l-20 21c-25 -18 -39 -43 -41 -76h198c0 29 -14 55 -39 76c-20 -20 -37 -43 -55 -64zM439 568c-6 -2 -5 -5 -3 -13c2 -10 5 -14 13 -12c2 -10 8 -17 14 -27c2 0 4 -2 6 -6
c-8 -2 -16 -6 -22 -12l24 -25l15 -20l6 29l-8 8l14 14l8 -8l4 -6l-8 -8l6 -31l17 22l24 25c-8 6 -16 10 -24 12c2 0 4 4 10 10s10 13 12 23c6 -2 10 4 12 12c2 12 2 13 -6 13v10c-18 4 -31 12 -41 26c-14 -18 -36 -28 -63 -28h-8v-8h-2zM496 674c57 0 88 -39 88 -100v-95
c14 -20 21 -42 21 -65v-4h-214v4c0 23 7 45 21 65v95c0 61 27 100 84 100z" />
    <glyph glyph-name="female47" unicode="&#xe02d;" 
d="M238 211v21h39v39h22v-39h39v-21h-39v-39h-22v39h-39zM371 422c0 -18 13 -35 27 -35h6c8 -29 24 -55 49 -78l10 -10c4 -2 8 -6 10 -8l-77 -16c31 -35 63 -70 94 -105l12 59l2 7l-20 18l30 29l29 -29l-20 -18l16 -68l92 107l-78 16l9 10l10 8c25 23 43 49 51 78
c4 0 10 2 20 8s13 15 13 27s-4 19 -10 23c-2 0 -5 0 -7 -2v20h-88v78l-14 -76h-148v-22c-2 2 -6 2 -8 2c-6 -2 -10 -9 -10 -23zM293 158c31 0 59 32 59 65v6c-2 21 -14 32 -24 42c-6 2 -10 6 -12 8c-10 4 -21 6 -35 6s-25 -5 -39 -19c-12 -10 -17 -24 -17 -45
c0 -35 25 -63 68 -63zM371 219c0 -41 -39 -80 -82 -80c-10 0 -21 2 -31 6l-6 -26v-6c2 -16 9 -23 23 -23h94v51c0 6 4 9 10 9s10 -3 10 -9v-51h250v51c0 6 3 9 9 9s10 -3 10 -9v-51h94c10 0 23 9 23 19v10l-17 98c-2 20 -21 37 -39 41l-14 2l-53 11l-129 -152
c-2 -2 -3 -2 -7 -2s-6 0 -8 2l-133 152l-18 -3c10 -14 14 -29 14 -49zM514 680c129 0 191 -86 191 -225v-176l18 -2c25 -6 48 -31 54 -56l18 -100v-10c-4 -21 -18 -41 -43 -41h-477c-14 0 -25 4 -33 14s-10 15 -10 21v16l6 33c-21 18 -33 40 -33 65c0 49 35 86 84 86
c10 0 21 -2 33 -6v156c0 139 63 225 192 225z" />
    <glyph glyph-name="female48" unicode="&#xe02e;" 
d="M354 242l13 -13l-53 -51l-33 27l12 16l19 -18zM324 270c-35 0 -64 -28 -64 -63s29 -64 64 -64s63 29 63 64s-28 63 -63 63zM521 225c51 0 102 68 114 111c4 -2 9 2 19 8s14 13 14 27s-4 23 -10 25c-2 0 -6 1 -8 -1v25c-41 10 -74 30 -95 59c-33 -45 -81 -67 -145 -67h-17
v-17c-2 2 -6 1 -8 1c-6 -2 -10 -5 -10 -13c0 -18 4 -31 16 -41c8 -6 13 -8 17 -6c14 -41 62 -111 113 -111zM238 207c0 45 37 80 80 82c0 47 2 86 6 117c10 154 74 233 197 233s188 -79 198 -233c0 -21 5 -84 15 -191c6 -49 14 -84 26 -104h-477c2 4 6 10 8 18
c-35 14 -53 41 -53 78z" />
    <glyph glyph-name="female49" unicode="&#xe02f;" 
d="M264 229l11 15h2l18 -15l23 21l2 4l10 8l6 6l2 -4l12 -12c-18 -16 -35 -33 -53 -51zM389 389h9c10 -29 28 -57 53 -80c2 -4 6 -8 10 -10l12 -8h-8l-51 -12c25 -21 55 -31 88 -31s63 10 88 31l-51 12l10 8l12 8c27 23 44 51 54 82h6c2 2 8 3 16 9s11 16 11 28
s-3 19 -11 21c-2 0 -4 0 -6 -2v18h-86v78l-12 -76h-150v-20c-2 2 -6 2 -8 2c-6 -2 -8 -5 -8 -13v-22c0 -8 14 -23 22 -23zM301 172c35 0 64 27 64 60l2 2c0 33 -31 65 -64 65c-31 0 -65 -30 -65 -61c0 -41 28 -66 63 -66zM387 232c-2 -43 -39 -82 -82 -82
c-20 0 -37 6 -53 18l-6 -35h111v13c0 6 4 10 10 10s10 -4 10 -10v-56h248v56c0 6 4 10 12 10s9 -4 9 -10v-13h112l-16 82c-2 18 -21 35 -37 41h-6l-86 19c-31 -31 -68 -46 -111 -46s-80 15 -111 46l-14 -4c6 -12 10 -23 10 -37v-2zM266 90h91v23h-115c0 -16 8 -23 24 -23z
M736 90c16 0 24 7 24 23h-115v-23h91zM508 680c127 0 191 -86 191 -223v-180c33 -6 59 -27 65 -58l15 -98v-10c-4 -21 -18 -41 -43 -41h-470c-16 0 -28 4 -36 14s-9 15 -7 21v16l11 67c-10 14 -15 30 -15 50c0 43 41 80 84 80c6 0 9 0 15 -2v141c0 76 18 133 53 168
s80 55 137 55z" />
    <glyph glyph-name="female50" unicode="&#xe030;" 
d="M482 555h65v-14h-51v-398h51v-16h-65v205h-37v14h37v209zM684 104h-4l-43 25c-2 2 -4 2 -2 4c-23 -16 -45 -43 -47 -82h211c-2 33 -22 66 -47 82c0 -2 -2 -2 -4 -4l-35 -22l-8 -3h-2c-2 0 -2 -1 -4 1v2l-6 12l-5 -12l-2 -2c0 -2 0 -1 -2 -1zM652 148l-7 -13l35 -22l8 16
l-30 16zM740 135c-4 4 -6 7 -6 13h-2l-3 -3l-30 -16l6 -16zM627 195c0 -4 10 -15 14 -11c2 -10 7 -20 17 -30l6 -2l29 -17l24 13l4 4l6 2c10 10 15 20 17 30c8 -2 12 1 14 11c2 12 0 20 -6 14v12c-20 4 -35 13 -45 27c-14 -20 -37 -29 -66 -29l-8 -2v-8l-2 2
c-6 -2 -6 -6 -4 -16zM693 322c61 0 90 -41 90 -107v-100c16 -21 24 -43 24 -68v-6h-229v6c0 25 8 47 24 68v100c0 66 30 107 91 107zM684 490h-4l-43 26c-2 2 -4 2 -2 4c-23 -16 -45 -43 -47 -82h211c-2 33 -22 66 -47 82c0 -2 0 -2 -2 -4l-37 -22l-8 -4h-2c-2 0 -2 0 -4 2
v2l-6 12l-5 -12l-2 -2c0 -2 0 -2 -2 -2zM652 535l-7 -14l35 -21l8 16l-30 15zM740 521c-4 4 -6 8 -6 14h-2l-3 -4l-30 -15l6 -16zM627 582c0 -4 10 -16 14 -12c2 -10 7 -19 17 -29l6 -2l29 -18l24 14l4 4l6 2c10 10 15 19 17 29c8 -2 12 2 14 12c2 12 0 20 -6 14v11
c-20 4 -35 14 -45 28c-14 -20 -37 -30 -66 -30l-8 -1v-8c0 2 0 2 -2 2c-6 -2 -6 -6 -4 -16zM693 709c61 0 90 -41 90 -107v-100c16 -21 24 -43 24 -68v-6h-229v6c0 25 8 47 24 68v100c0 66 30 107 91 107zM412 209c-2 39 -24 68 -47 84c2 -2 0 -4 -2 -6l-35 -19l-8 -4l-2 -2
h-2c-2 2 -2 2 -2 4l-2 2l-5 9l-4 -9c-2 -2 -4 -4 -4 -6h-2c-2 0 -2 0 -2 2l-43 23c-2 2 -4 4 -2 6c-27 -16 -47 -49 -49 -84h211zM266 307l-6 -14l35 -20l6 14l-30 18l-3 2h-2zM355 293l-7 14l-6 -2l-30 -18l8 -14zM244 369c-4 -2 -6 -5 -4 -15c4 -8 10 -12 16 -12
c2 -8 6 -16 12 -26l5 -2l6 -3l6 -2l22 -14l23 14l6 2l6 3l4 2c6 10 11 18 13 26c8 -2 14 2 16 12s0 13 -6 15c0 2 0 2 -2 0v12c-20 4 -35 11 -45 25c-16 -20 -37 -29 -66 -29h-8v-8c-2 2 -2 2 -4 0zM307 480c61 0 91 -39 91 -105v-100c16 -21 24 -45 24 -70v-4h-229v4
c0 25 8 49 24 70v100c0 66 29 105 90 105z" />
    <glyph glyph-name="female51" unicode="&#xe031;" 
d="M254 227l14 15l5 -6l14 -11l37 37l4 2l14 -14c-18 -16 -35 -33 -53 -51l-33 26zM377 445c-6 -2 -10 -7 -10 -13c0 -18 2 -29 14 -37c6 -4 11 -8 15 -8h2c10 -29 26 -55 51 -78c4 -8 14 -12 20 -18l-76 -16l91 -105l12 59l2 7l-18 18l24 23l4 6l29 -29l-17 -18v-7l13 -61
l92 107l-76 16c2 4 6 8 10 10c29 25 50 53 60 86c4 0 10 2 20 8s13 13 13 27s-3 21 -11 23c-2 0 -6 0 -8 -2v20h-88v78l-12 -76h-148v-22c-2 2 -6 2 -8 2zM357 227c0 39 -29 68 -64 68c-18 0 -31 -6 -45 -18c-12 -14 -18 -29 -18 -47s6 -32 20 -44l8 -8c10 -6 19 -10 27 -10
h16c29 4 56 28 56 59zM375 225c0 -37 -37 -77 -74 -77c-18 0 -33 4 -47 10l-6 -39v-6c2 -16 9 -23 23 -23h92v51c0 6 4 9 10 9s10 -3 10 -9v-51h252v51c0 6 4 9 10 9s9 -3 9 -9v-51h92c12 0 25 7 25 17c0 4 -1 10 -1 12l-18 98c-2 20 -21 37 -39 41l-67 13
c-41 -53 -85 -101 -128 -152c-2 -2 -2 -2 -6 -2s-6 0 -8 2c-45 51 -88 103 -135 152l-2 -1c6 -10 8 -25 8 -45zM789 111c0 -23 -16 -41 -43 -41h-475c-14 0 -25 4 -33 14s-9 15 -9 21v16l7 49c-18 18 -27 37 -27 60c0 45 37 86 84 86c6 0 13 -2 23 -4v143
c0 139 63 225 192 225s193 -86 193 -225v-176l16 -2c25 -6 52 -29 54 -56l18 -100v-10z" />
    <glyph glyph-name="female52" unicode="&#xe032;" 
d="M373 217v-20h-100v20h100zM521 225c51 0 102 68 114 111c4 -2 9 2 19 8s14 13 14 27s-4 23 -10 25c-2 0 -6 1 -8 -1v25c-41 10 -74 30 -95 59c-33 -45 -81 -67 -145 -67h-17v-17c-2 2 -6 1 -8 1c-6 -2 -10 -5 -10 -13c0 -18 4 -31 16 -41c8 -6 13 -8 17 -6
c14 -41 62 -111 113 -111zM387 207c0 35 -30 63 -65 63h-6c-29 -2 -56 -32 -56 -63c0 -39 27 -64 70 -64c29 0 57 33 57 64zM238 207c0 45 37 80 80 82c0 47 2 86 6 117c10 154 74 233 197 233s188 -79 198 -233c0 -21 5 -84 15 -191c6 -49 14 -84 26 -104h-477
c2 4 6 10 8 18c-35 14 -53 41 -53 78z" />
    <glyph glyph-name="female53" unicode="&#xe033;" 
d="M352 518c64 0 95 -44 95 -112v-86c18 -4 29 -9 33 -29l10 -49v-10h334v356h-648v-356h37v10l10 49c4 20 15 25 33 29v86c0 68 32 112 96 112zM283 385c0 -4 10 -16 14 -12c6 -14 11 -25 17 -31l12 -12c2 -2 4 -4 6 -4l-37 -8l45 -52l6 29l2 4l-10 8l12 11l2 4l2 -4
l11 -11l-10 -8l2 -4l6 -29l45 52l-37 8c0 2 2 2 4 4c14 10 23 23 31 43c4 -4 14 8 14 12c2 10 2 13 -4 15c0 2 -2 2 -4 0v10h-43v39l-6 -37h-74v-12c-2 2 -2 2 -2 0c-6 -2 -6 -5 -4 -15zM355 240h-5l-67 76l-27 -5c-14 -4 -22 -8 -26 -22l-7 -49c0 -2 0 -6 2 -8h54v20
c0 2 2 4 6 4s4 -2 4 -4v-20h125v20c0 2 0 4 4 4s6 -2 6 -4v-20h55c2 2 1 6 1 8l-7 49c-4 14 -12 18 -26 22l-27 5zM609 203v-37h24v-33h-266v33h24v37h-245v414h708v-414h-245zM629 297c-68 0 -125 57 -125 125s57 123 123 125v-129h125c0 -68 -55 -121 -123 -121zM760 436
h-114v115c61 -6 108 -54 114 -115z" />
    <glyph glyph-name="female54" unicode="&#xe034;" 
d="M211 262c0 -10 4 -14 12 -14h41v23c0 2 2 4 4 4s3 -2 3 -4v-23h112v23c0 2 0 4 4 4s6 -2 6 -4v-23h41c6 0 9 4 9 14l-7 43c-2 14 -12 15 -24 19l-23 4l-57 -66c-2 -2 -2 -2 -4 -2s-2 0 -4 2l-41 49l-17 17l-24 -4c-12 -4 -19 -5 -23 -19zM270 406c-6 -2 -6 -5 -4 -15
s5 -12 13 -10c4 -14 8 -23 14 -29l12 -10c2 -2 4 -2 6 -4l-36 -8l20 -19l21 -26l6 26v1l-8 10l12 10l2 2l12 -12l-8 -10v-1l6 -28l41 47l-33 8l8 8c12 10 19 21 23 35c6 -2 12 2 14 10c2 10 -2 19 -8 13v10h-39v33l-6 -31h-67v-10h-1zM328 510c57 0 84 -39 84 -100v-76
c18 -4 27 -7 31 -27l8 -43c2 -12 -5 -24 -17 -24h-211c-12 0 -22 10 -20 24l8 43c4 20 13 23 31 27v76c0 61 29 100 86 100zM834 172v406h-668v-406h668zM127 619h746v-488h-746v488zM482 395h297v-40h-279zM482 498h297v-39h-279zM482 291h297v-39h-279z" />
    <glyph glyph-name="female55" unicode="&#xe035;" 
d="M666 432c43 0 66 -31 66 -78v-75c12 -16 18 -32 18 -50v-4h-168v4c0 18 6 34 18 50v75c0 53 21 78 66 78zM688 303c8 8 13 15 17 25c5 0 11 8 11 15c0 3 -2 6 -5 7h-2v7c-14 2 -25 10 -31 20c-12 -14 -30 -22 -51 -22h-4v-5c-5 0 -7 -4 -7 -8c0 -6 5 -14 11 -14
c2 -6 6 -13 12 -19c0 -2 2 -2 2 -2v-2c2 -2 2 -2 4 -2c-4 -2 -8 -2 -10 -4c10 -8 19 -12 31 -12s21 4 31 12c-2 2 -5 2 -9 4zM627 295c-20 -10 -37 -36 -39 -63h156c-2 29 -16 49 -39 63c-12 -10 -25 -16 -39 -16s-27 6 -39 16zM436 166v-31c4 -6 5 -14 5 -22v-2h-72v2
c0 8 2 16 8 22v31c0 23 9 35 29 35s30 -12 30 -35zM414 145c6 0 8 9 8 11c3 0 6 3 6 6c0 1 -1 3 -2 4l-2 -2v4c-6 2 -10 4 -14 10c-6 -6 -11 -10 -21 -10h-2v-4c0 2 0 2 -2 2c-1 -1 -2 -3 -2 -4c0 -3 3 -6 6 -6c2 -6 5 -9 7 -11c-2 0 -1 0 -3 -2c4 -2 7 -4 13 -4s10 2 14 4
c-2 2 -4 2 -6 2zM439 113c0 14 -5 24 -17 30c-4 -6 -10 -8 -16 -8s-11 2 -17 8c-10 -6 -16 -16 -18 -30h68zM584 436v-2h-170v2c0 20 6 36 18 50v75c0 53 23 78 68 78s66 -25 66 -78v-75c12 -14 18 -30 18 -50zM453 557c-3 -1 -5 -4 -5 -7c0 -6 5 -13 11 -13h2
c2 -10 6 -17 10 -21s6 -4 6 -6c-2 0 -6 -2 -10 -4c10 -8 21 -12 33 -12s21 4 31 12l-11 4c8 8 13 17 17 27h2c6 0 11 7 11 13c0 3 -2 6 -5 7h-2v7c-14 4 -25 10 -33 20c-10 -14 -28 -22 -49 -22h-6v-5h-2zM422 439h154c0 29 -18 51 -39 65c-10 -10 -21 -16 -37 -16
s-29 6 -39 16c-25 -18 -39 -40 -39 -65zM768 135c6 -6 7 -14 7 -22v-2h-72v2c0 8 2 16 6 22v31c0 23 9 35 29 35s30 -12 30 -35v-31zM729 146c0 -2 -2 -1 -4 -3c4 -2 7 -4 13 -4s10 2 16 4c-2 2 -4 2 -6 2c2 2 6 5 8 11c3 0 6 3 6 6c0 1 -1 3 -2 4c-2 0 -2 0 -2 -2v4
c-6 2 -12 4 -14 10c-6 -6 -11 -10 -21 -10h-2v-4l-2 2c-1 -1 -2 -3 -2 -4c0 -3 3 -6 6 -6c2 -2 2 -6 4 -10h2zM705 113h68c-2 14 -7 24 -17 30c-6 -6 -12 -8 -18 -8s-11 2 -15 8c-12 -8 -18 -18 -18 -30zM336 182l33 -18l-4 -6l-33 20l-31 -20l-4 6l33 18v31h6v-31zM574 285
l-76 45l-74 -45l-8 12l76 45v70h14v-70l76 -45zM291 166v-31c4 -6 6 -14 6 -22v-2h-72v2c0 8 1 16 7 22v31c0 23 10 35 30 35s29 -12 29 -35zM240 166c-1 -1 -2 -3 -2 -4c0 -3 3 -6 6 -6c2 -6 6 -9 8 -11c-2 0 -2 0 -4 -2c4 -2 8 -4 14 -4s9 2 13 4c-2 2 -2 2 -4 2v1h2
c2 4 2 8 4 10c3 0 6 3 6 6c0 1 -1 3 -2 4l-2 -2v4c-6 2 -9 4 -13 10c-6 -6 -12 -10 -22 -10h-2v-4c0 2 0 2 -2 2zM295 113c0 14 -6 24 -18 30c-4 -6 -9 -8 -15 -8s-12 2 -18 8c-10 -6 -15 -16 -17 -30h68zM623 166v-31c6 -6 8 -14 8 -22v-2h-72v2c0 8 1 16 5 22v31
c0 23 10 35 30 35s29 -12 29 -35zM574 166c-1 -1 -2 -3 -2 -4c0 -3 3 -6 6 -6c2 -2 2 -6 4 -10l2 -1c-2 0 -2 0 -4 -2c4 -2 8 -4 14 -4s9 2 13 4c-2 2 -1 2 -3 2c2 2 5 5 7 11c3 0 6 3 6 6c0 1 -1 3 -2 4c-2 0 -2 0 -2 -2v4c-6 2 -11 4 -13 10c-6 -6 -12 -10 -22 -10h-2v-4z
M629 113c-2 14 -8 24 -18 30c-6 -6 -11 -8 -17 -8s-12 2 -16 8c-12 -8 -17 -18 -17 -30h68zM334 432c43 0 66 -31 66 -78v-75c12 -16 18 -32 18 -50v-4h-168v4c0 18 6 34 18 50v75c0 53 21 78 66 78zM355 303c2 2 4 4 4 6c6 6 10 13 12 19c7 0 13 7 13 14c0 3 -2 6 -5 8h-2
v7c-14 2 -25 10 -33 20c-10 -14 -28 -22 -49 -22h-4v-5c-5 0 -7 -4 -7 -8c0 -6 5 -14 11 -14c2 -6 6 -13 12 -19c0 -2 2 -2 2 -2v-2c2 -2 1 -2 3 -2c-4 -2 -7 -2 -9 -4c10 -8 19 -12 31 -12s21 4 31 12c-2 2 -6 2 -10 4zM256 232h154c0 27 -12 49 -37 63
c-12 -10 -25 -16 -39 -16s-27 6 -39 16c-20 -10 -37 -36 -39 -63zM670 182l33 -18l-4 -6l-33 20l-33 -20l-2 6l33 18v31h6v-31z" />
    <glyph glyph-name="female56" unicode="&#xe036;" 
d="M350 240v-19h-82v19h82zM504 635c107 0 160 -71 160 -186v-129h-115c31 33 49 78 53 137c-33 6 -61 22 -79 45c-25 -33 -64 -51 -115 -51h-2c6 -57 24 -100 55 -131h-117v129c0 115 53 186 160 186zM764 115h-243l88 88l-27 27h39l-49 49c127 -14 192 -68 192 -164z
M307 178c29 0 52 22 52 49s-19 54 -48 54s-53 -22 -53 -49s20 -54 49 -54zM236 230c0 41 35 71 78 71c23 0 41 -12 55 -33c21 6 44 9 67 11l-49 -49h39l-28 -27l88 -88h-240c0 23 4 45 12 65c-14 14 -22 30 -22 50z" />
    <glyph glyph-name="female57" unicode="&#xe037;" 
d="M420 307l-14 -28l6 -2l63 -37l7 18l6 10c-25 12 -45 25 -68 39zM594 279l-14 28l-23 -14l-12 -8l-14 -8l-19 -9l6 -10l7 -18l63 37zM609 404c14 0 24 14 24 34c0 14 -4 21 -10 23c-2 0 -4 0 -6 -2v4h-84v78l-12 -76h-138v-6c-2 2 -4 2 -6 2c-6 0 -10 -4 -10 -12
c0 -18 4 -29 12 -35s12 -10 16 -8h1c12 -37 59 -101 104 -101s92 64 104 101c2 -2 3 -2 5 -2zM723 90c6 0 25 11 21 19v6l-17 92c-2 18 -20 35 -36 37l-87 20l-79 -45c-2 -2 -2 -2 -4 -2h-3l-6 6l-12 25l-12 -25l-6 -6h-3c-2 0 -2 0 -4 2l-79 45l-87 -20
c-16 -2 -34 -19 -36 -37l-17 -92v-4c4 -14 11 -21 21 -21h86v49c0 8 4 11 12 11s10 -3 10 -11v-49h230v49c0 8 2 11 10 11s12 -3 12 -11v-49h86zM502 680c119 0 180 -80 180 -209v-203l13 -4c23 -6 49 -28 51 -53l18 -92v-6c0 -23 -18 -43 -41 -43h-446c-20 0 -41 17 -41 35
v14l18 92c2 25 28 47 51 53l17 4v203c0 129 61 209 180 209z" />
    <glyph glyph-name="female58" unicode="&#xe038;" 
d="M727 537c0 62 -52 111 -114 111c-10 0 -13 4 -13 14s3 14 13 14c74 0 139 -65 139 -139c0 -10 -6 -14 -14 -14s-11 4 -11 14zM672 92c14 0 19 5 19 17v4l-13 82c-2 14 -20 30 -32 34l-70 13l-92 -92c-2 -2 -3 -2 -5 -2s-4 0 -6 2l-92 92l-70 -13c-12 -4 -30 -20 -32 -34
l-13 -82v-6c0 -10 5 -15 17 -15h76v47c0 6 2 7 8 7s10 -1 10 -7v-47h203v47c0 6 4 7 10 7s8 -1 8 -7v-47h74zM389 338c10 -29 31 -64 62 -80l-4 -2l-47 -10l79 -78l78 78l-47 10l-4 2c31 16 52 51 62 80h2c10 0 24 11 24 21c0 6 0 10 2 12c0 10 -4 14 -10 14c-2 2 -4 2 -6 0
v13h-76v65l-12 -63h-115v-15l-2 2c-8 -4 -16 -6 -16 -20c0 -10 4 -17 12 -23c6 -6 10 -8 16 -6h2zM479 578c105 0 156 -70 156 -183v-149l13 -2c21 -4 43 -26 45 -47l16 -80v-6c-2 -10 -4 -17 -10 -25c-8 -8 -17 -12 -27 -12h-387c-16 0 -37 15 -37 31v12l16 80
c2 21 24 43 45 47l11 2v149c0 113 54 183 159 183zM611 629c51 0 96 -43 96 -94c0 -10 -4 -14 -14 -14s-13 4 -13 14c0 37 -32 69 -69 69c-8 0 -11 5 -11 13s3 12 11 12zM635 531c0 18 -12 28 -30 28c-8 0 -11 3 -11 11s5 14 17 14c23 0 49 -26 49 -49c0 -12 -4 -17 -12 -17
s-13 5 -13 13z" />
    <glyph glyph-name="female59" unicode="&#xe039;" 
d="M365 178c-6 -4 -9 -8 -13 -14l-30 29l-17 -19l-10 -10l-14 14l28 29l-28 27l6 8l8 6l27 -27l30 27l13 -14l-27 -27zM521 225c51 0 102 68 114 111c4 -2 9 2 19 8s14 13 14 27s-4 23 -10 25c-2 0 -6 1 -8 -1v25c-41 10 -74 30 -95 59c-33 -45 -81 -67 -145 -67h-17v-17
c-2 2 -6 1 -8 1c-6 -2 -10 -5 -10 -13c0 -18 4 -31 16 -41c8 -6 13 -8 17 -6c14 -41 62 -111 113 -111zM387 207c0 35 -30 63 -65 63h-6c-29 -2 -56 -32 -56 -63c0 -39 27 -64 70 -64c29 0 57 33 57 64zM238 207c0 45 37 80 80 82c0 47 2 86 6 117c10 154 74 233 197 233
s188 -79 198 -233c0 -21 5 -84 15 -191c6 -49 14 -84 26 -104h-477c2 4 6 10 8 18c-35 14 -53 41 -53 78z" />
    <glyph glyph-name="female60" unicode="&#xe03a;" 
d="M352 518c64 0 95 -44 95 -112v-86c18 -4 29 -9 33 -29l10 -49v-10h334v356h-648v-356h37v10l10 49c4 20 15 25 33 29v86c0 68 32 112 96 112zM283 385c0 -4 10 -16 14 -12c6 -14 11 -25 17 -31l12 -12c2 -2 4 -4 6 -4l-37 -8l45 -52l6 29l2 4l-10 8l12 11l2 4l2 -4
l11 -11l-10 -8l2 -4l6 -29l45 52l-37 8c0 2 2 2 4 4c14 10 23 23 31 43c4 -4 14 8 14 12c2 10 2 13 -4 15c0 2 -2 2 -4 0v10h-43v39l-6 -37h-74v-12l-2 2c-6 -2 -6 -7 -4 -17zM355 240h-5l-49 55l-18 21l-27 -5c-14 -4 -22 -8 -26 -22l-7 -49c0 -2 0 -6 2 -8h54v20
c0 2 2 4 6 4s4 -2 4 -4v-20h125v20c0 2 0 4 4 4s6 -2 6 -4v-20h55c2 2 1 6 1 8l-7 49c-4 14 -12 18 -26 22l-27 5zM854 203h-245v-37h24v-33h-266v33h24v37h-245v414h708v-414zM498 369v-29c6 4 15 13 33 29h-33zM541 381c2 0 4 2 6 4v41h-49v-45h43zM498 482v-44h49v44h-49
zM498 537v-43h49v43h-49zM557 369v-39h47v39h-47zM557 426v-31c18 18 29 29 33 31h-33zM557 482v-44h45l2 1v43h-47zM557 537v-43h47v43h-47zM613 369v-39h47v39h-47zM613 426v-45h47v27zM613 482v-44h47v44h-47zM613 537v-43h47v43h-47zM670 369v-39h47v39h-47zM670 402
v-21h47v45h-2l-20 -31zM670 426v-12l19 -8l12 20h-31zM670 482v-44h39l8 13v31h-47zM670 537v-43h47v43h-47zM727 369v-39h46v39h-46zM727 426v-45h46v45h-46zM727 447v-9h46v44h-25zM727 482v-13l9 13h-9zM727 537v-43h15l26 43h-41zM773 494v29l-17 -29h17zM660 418v8h-19
zM604 381v43c-18 -18 -33 -31 -47 -43h47zM547 330v39c-23 -21 -39 -35 -45 -39h45zM486 318v229h297v-229h-297z" />
    <glyph glyph-name="female61" unicode="&#xe03b;" 
d="M639 527h78c-2 45 -37 76 -78 82v-82zM537 520c0 -47 41 -88 88 -88c49 0 86 37 88 84h-90v89c-47 0 -86 -38 -86 -85zM439 656h379v-261h-230l-84 -83v83h-65v261zM855 695v-273h-19v254h-369v19h388zM652 357c62 0 92 -41 92 -109v-74h-68c20 18 31 45 33 80
c-21 4 -37 11 -47 25c-14 -20 -37 -29 -66 -29h-2c4 -33 13 -58 31 -76h-66v74c0 68 31 109 93 109zM605 121l-15 -16l51 -50h-139c0 57 37 87 109 95l-27 -29h21zM801 55h-139l51 50l-16 16h22l-28 29c72 -8 110 -38 110 -95zM293 562c62 0 94 -41 94 -107v-76h-67
c18 20 30 47 32 80c-20 4 -35 13 -47 27c-14 -20 -38 -29 -67 -29v-2c2 -33 14 -58 32 -76h-69v76c0 66 30 107 92 107zM248 328l-16 -17l51 -49h-138c0 57 37 87 109 93l-27 -27h21zM443 262h-138l50 49l-15 17h21l-27 27c72 -6 109 -36 109 -93z" />
    <glyph glyph-name="female62" unicode="&#xe03c;" 
d="M553 656h-73v-562h73v-20h-92v287h-51v20h51v295h92v-20zM322 410c-14 4 -25 10 -33 20c-12 -14 -30 -22 -51 -22c2 -25 10 -42 24 -56h-51v54c0 55 23 82 70 82s69 -27 69 -82v-54h-51c14 14 21 33 23 58zM246 312l-12 -13l37 -37h-103c0 41 27 66 82 72l-21 -22h17z
M393 262h-106l39 37l-12 13h18l-21 22c55 -6 82 -31 82 -72zM764 164c-16 2 -27 10 -35 20c-12 -14 -30 -22 -51 -22c2 -25 9 -44 23 -58h-51v56c0 55 22 82 69 82s70 -27 70 -82v-56h-51c14 14 24 35 26 60zM686 64l-12 -11l39 -37h-106c0 41 27 64 82 70l-21 -22h18z
M832 16h-103l37 37l-12 11h17l-21 22c55 -6 82 -29 82 -70zM764 656c-16 4 -27 12 -35 22c-12 -16 -30 -24 -51 -24c2 -25 9 -42 23 -56h-51v56c0 53 22 80 69 80s70 -27 70 -80v-56h-51c14 14 24 33 26 58zM686 559l-12 -12l39 -39h-106c0 43 27 66 82 72l-21 -21h18z
M832 508h-103l37 39l-12 12h17l-21 21c55 -6 82 -29 82 -72z" />
    <glyph glyph-name="female63" unicode="&#xe03d;" 
d="M301 186l-8 7l-8 6l8 8l6 8l12 -12l7 -4l16 16l25 21l14 -13c-20 -16 -37 -33 -55 -51zM650 410c0 14 -3 29 -11 29c-2 0 -4 -1 -6 -3v25c-41 10 -75 28 -98 57c-33 -41 -80 -63 -144 -63l-16 -2v-17c-8 8 -18 -2 -18 -12c0 -20 0 -29 14 -39c8 -6 14 -8 20 -6
c6 -21 17 -43 33 -63c6 -8 9 -9 15 -17c-18 -6 -36 -14 -54 -24l94 -105l9 45l6 23l-19 18l29 29l17 -15l12 -14l-19 -18l6 -23l9 -47l92 107c-18 10 -35 18 -55 24c21 21 43 53 51 78c2 0 10 4 20 10s13 13 13 23zM332 266c-39 0 -64 -30 -64 -65c0 -14 3 -25 11 -37l8 -8
c14 -12 27 -17 45 -17c33 0 63 29 63 62v14c-6 23 -22 39 -45 47c-4 2 -8 2 -12 2c-2 2 -2 2 -4 2h-2zM416 201c0 -43 -37 -84 -80 -84c-20 0 -39 6 -55 18c-4 -14 -6 -29 -6 -45h457c-4 72 -44 139 -93 176l-125 -147c-2 -2 -6 -4 -10 -4s-4 2 -6 4l-84 94
c2 -6 2 -10 2 -12zM504 680c133 0 197 -88 197 -231v-219c33 -45 51 -93 51 -150v-10h-498v10c0 25 4 49 12 70c-12 16 -18 33 -18 51c0 39 28 68 57 80v168c0 80 17 139 54 176s86 55 145 55z" />
    <glyph glyph-name="girl10" unicode="&#xe03e;" 
d="M354 244v-19h-100v19h100zM383 445c-2 2 -4 2 -6 2c-2 -2 -4 -2 -6 -2c-6 0 -8 -3 -8 -11c2 -6 4 -12 4 -20s4 -13 10 -19s12 -8 14 -6h7c10 -29 28 -57 53 -80l10 -10l12 -8h-8l-51 -12c25 -21 55 -31 88 -31s63 10 88 31l-51 12l10 8l12 8c27 23 44 51 54 82h6
c2 2 8 3 16 9s11 16 11 28s-3 19 -11 21c-2 0 -4 0 -6 -2v18h-86v78l-12 -76h-150v-20zM301 172c35 0 64 27 64 60l2 2c0 14 -7 35 -15 43c-8 14 -22 22 -43 22c-37 0 -71 -28 -71 -61c0 -41 28 -66 63 -66zM635 156c6 0 11 -4 11 -10v-13h112l-16 82c-2 18 -21 35 -37 41
h-6l-86 19c-31 -31 -68 -46 -111 -46s-80 15 -111 46l-14 -4c6 -12 10 -23 10 -37v-2c-2 -43 -39 -82 -82 -82c-20 0 -37 6 -53 18l-6 -35h111v13c0 6 4 10 10 10s10 -4 10 -10v-56h248v56c0 6 4 10 10 10zM266 90h91v23h-115c0 -16 8 -23 24 -23zM736 90c16 0 24 7 24 23
h-115v-23h91zM508 680c127 0 191 -86 191 -223v-180c33 -6 59 -27 65 -58l15 -98v-10c-4 -21 -18 -41 -43 -41h-470c-16 0 -28 4 -36 14s-9 15 -7 21v16l11 67c-10 14 -15 30 -15 50c0 43 41 80 84 80c6 0 9 0 15 -2v141c0 76 18 133 53 168s80 55 137 55z" />
    <glyph glyph-name="girl11" unicode="&#xe03f;" 
d="M605 352c14 0 20 -6 20 -18c0 -14 -6 -22 -20 -22s-21 6 -21 20s6 20 20 22zM289 197c4 0 8 -4 8 -8v-39h197v39c0 6 2 8 8 8s8 -2 8 -8v-39h72c10 0 20 6 20 18v4l-14 78c-4 18 -18 29 -41 33l-43 10l-102 -119c-2 -2 -4 -4 -6 -4s-3 2 -5 4l-75 86l-31 33l-41 -10
c-23 -6 -37 -15 -41 -33l-14 -78v-4c0 -12 8 -18 18 -18h74v39c0 6 2 8 8 8zM482 385h4c12 0 22 17 22 31c0 9 -5 12 -12 16l-2 -2v13h-70v63l-10 -59h-117v-17l-4 2l-2 -2c-6 -2 -8 -8 -8 -14c0 -14 10 -31 22 -31h4c8 -27 23 -51 46 -69l8 -7l-60 -12l74 -84l10 47v6
l-14 13l18 20l4 4l23 -24l-16 -13l2 -6l10 -47l72 84l-60 12c4 4 13 7 15 13c21 18 35 40 41 63zM395 615c100 0 152 -69 152 -176v-138l14 -4c21 -2 39 -25 43 -45l13 -76v-4c0 -21 -14 -37 -35 -37h-375c-16 0 -35 13 -35 27c0 6 0 10 2 14l14 76c2 20 21 43 42 45l14 4
v138c0 107 49 176 151 176zM771 592c25 0 57 -30 57 -57c0 -14 -2 -25 -8 -35c4 -10 6 -17 8 -27c0 -33 -27 -65 -58 -65c-16 0 -30 4 -40 12c-14 -12 -26 -18 -42 -18c-27 0 -47 12 -59 37h-2c-33 0 -63 30 -63 63c0 35 28 62 61 64c6 29 31 49 66 49c20 0 35 -9 49 -27
c8 2 17 4 31 4zM648 398c14 0 24 -13 24 -27s-10 -23 -24 -23s-25 9 -25 23s11 27 25 27z" />
    <glyph glyph-name="girl7" unicode="&#xe040;" 
d="M756 566c33 0 62 -29 62 -62v-104c0 -33 -29 -62 -62 -62h-33l-67 -67v67h-4c-33 0 -62 29 -62 62v104c0 33 29 62 62 62h104zM592 150c10 0 17 6 17 18v4l-13 78c-4 18 -18 29 -41 33l-41 10l-102 -119c-2 -2 -4 -4 -6 -4s-6 2 -8 4l-103 119l-43 -10
c-21 -4 -37 -15 -41 -33l-14 -78v-4c0 -12 10 -18 20 -18h72v39c0 6 2 8 8 8s8 -2 8 -8v-39h197v39c0 6 2 8 8 8s8 -2 8 -8v-39h74zM291 416c0 -13 11 -31 23 -31h2c8 -23 21 -45 41 -63l16 -13l-61 -12l73 -84l10 45l1 8l-15 13l23 24l22 -24l-14 -13l12 -53l72 84l-60 12
l7 7c23 18 39 40 47 69h4c12 0 24 17 24 31c0 9 -7 13 -14 16l-2 -2v13h-68v63l-10 -59h-119v-17l-4 2l-2 -2c-6 -2 -8 -8 -8 -14zM404 615c102 0 153 -69 153 -176v-138l11 -4c21 -2 41 -25 43 -45l14 -76c2 -4 2 -8 2 -14c-4 -14 -15 -27 -35 -27h-375
c-21 0 -35 16 -35 37v4l13 76c4 18 23 43 43 45l14 4v138c0 107 50 176 152 176z" />
    <glyph glyph-name="girl8" unicode="&#xe041;" 
d="M691 146c12 0 22 10 18 22l-14 80c-2 18 -16 29 -41 35l-43 8l-103 -121c-2 -2 -4 -2 -6 -2s-4 0 -6 2l-107 121l-43 -8c-25 -6 -39 -17 -41 -35l-14 -80c-4 -12 6 -22 18 -22h74v42c0 6 2 7 8 7s9 -1 9 -7v-42h200v42c0 6 3 7 9 7s8 -1 8 -7v-42h74zM395 432
c-6 -2 -10 -8 -10 -16c0 -14 11 -31 23 -31h4c6 -23 19 -45 39 -65c8 -6 14 -9 16 -11l-61 -14c23 -29 49 -57 74 -84l10 45l2 8l-15 13l23 24l23 -24l-15 -13l12 -55l74 86l-63 14c6 2 12 7 16 13c8 6 15 14 21 24c-12 -6 -23 -8 -33 -8h-21c-4 -4 -8 -6 -14 -6
c-10 0 -16 6 -16 16s6 15 16 15c6 0 12 -2 16 -8h13c25 0 45 6 55 20c2 6 4 8 4 10h4c12 0 23 17 23 31c0 6 -4 14 -10 16c-2 0 -3 0 -5 -2v15h-71v63l-9 -61h-120v-17c-2 2 -3 2 -5 2zM500 619c104 0 154 -69 154 -180v-140l14 -2c20 -6 41 -26 43 -47l14 -78
c2 -2 2 -6 2 -12c0 -16 -18 -29 -36 -29h-382c-16 0 -36 13 -36 27c0 6 0 10 2 14l14 78c2 21 23 41 43 47l14 2v140c0 111 50 180 154 180z" />
    <glyph glyph-name="girl9" unicode="&#xe042;" 
d="M488 229c-2 -2 -5 -4 -11 -4l-65 37l-8 6l-23 -6l-59 -12c-16 -2 -31 -19 -33 -35l-16 -86c-2 -14 8 -24 20 -24h80v47c0 6 4 8 10 8s10 -2 10 -8v-47h214v47c0 6 4 8 10 8s10 -2 10 -8v-47h80c12 0 22 10 20 24l-16 86c-2 16 -17 33 -33 35l-59 12l-23 6
c-23 -16 -50 -29 -73 -43h-7c-2 0 -4 2 -4 4l-12 23zM471 281l-12 6l-12 8l-21 12l-10 -18l-2 -6l4 -4l14 -6l17 -11l28 -16l7 16l4 9zM584 289l-10 18l-21 -12l-12 -8l-29 -16l4 -9l7 -16l28 16l17 11l14 6l4 4zM500 305c41 0 86 60 96 95h4c12 0 21 20 21 32s0 17 -4 17
s-6 2 -8 0v4h-78v72l-11 -70h-129v-6c-2 2 -4 0 -8 0s-6 -3 -6 -15s2 -22 10 -28s13 -8 17 -6c10 -35 55 -95 96 -95zM502 656c111 0 168 -76 168 -195v-190l12 -3c23 -6 42 -26 48 -49l14 -86c2 -2 2 -8 2 -14c0 -18 -23 -29 -39 -31h-414c-18 2 -39 15 -39 31
c0 6 0 10 2 14l14 86c6 23 25 43 48 49l18 3v190c0 119 55 195 166 195zM281 475c0 117 51 187 160 187h4c-84 -21 -125 -90 -125 -203v-176l-52 -10c-14 -2 -30 -19 -32 -33l-15 -82c-2 -14 7 -23 19 -23c-2 -6 -2 -12 0 -18c-18 0 -37 13 -37 31v12l16 82
c2 23 25 43 45 49l17 4v180zM561 664c107 0 160 -74 162 -187v-182l11 -4c23 -2 45 -24 47 -47l16 -82v-14c0 -16 -19 -31 -37 -31c2 6 2 12 0 18c16 2 21 9 19 23l-15 82c-2 16 -18 31 -34 33l-46 10v178c0 111 -41 180 -125 201z" />
    <glyph glyph-name="girls" unicode="&#xe043;" 
d="M762 316l4 -5l4 3l7 4l12 8l4 2l-2 6l-23 -14zM705 328l18 -10l7 -4l4 -3l2 3v2l-4 4l-23 14zM822 414c0 4 -4 10 -8 10l-2 -2v2h-44v41l-6 -39h-74v-4s-2 2 -4 2c-4 0 -6 -4 -6 -6c0 -12 11 -25 17 -25c8 -25 24 -43 45 -51c4 -2 8 -4 10 -4s6 2 10 4c18 6 41 31 45 51
c6 0 17 13 17 21zM398 426c0 -11 12 -26 22 -26h2c10 -29 43 -78 78 -78s68 49 78 78h4c10 0 20 18 20 30c0 6 -2 9 -8 11c-2 0 -4 0 -6 -2v2h-63v61l-9 -57h-104v-6c-2 2 -4 2 -6 2c-6 -2 -8 -7 -8 -15zM480 279l8 16l-39 21l-8 4l-5 -8l-2 -7l17 -10l12 -8zM512 295l8 -16
l17 8l12 8l13 8l4 2l-2 7l-5 8l-36 -19zM291 326l4 2l-4 6l-23 -14l-4 -2v-4l2 -2l11 6zM207 328l4 -2l12 -8l11 -6l2 2l2 4l-6 2l-23 14zM250 340c23 0 49 34 55 55c6 0 11 3 15 11c0 4 2 8 2 10c0 4 -2 6 -6 8h-4v2h-44v41l-6 -41h-74v-2h-4c-4 -2 -6 -2 -6 -6
c0 -12 7 -23 17 -23c8 -25 24 -43 45 -53c4 -2 8 -2 10 -2zM125 238v-8c2 -2 6 -1 14 -1h33v23c0 6 4 10 10 10s9 -4 11 -10v-23h114l4 23c6 23 25 41 50 45c-2 4 -5 6 -9 6l-45 9l-41 -23h-8c-2 2 -6 4 -8 10c-2 -6 -6 -8 -8 -10h-8l-41 23l-45 -9c-10 -2 -13 -6 -15 -16z
M596 209c6 0 9 -4 9 -10v-35h63c10 0 14 6 14 16l-10 49l-4 21c-2 14 -9 23 -23 25l-14 2l-20 4l-25 6l-8 2l-2 -2l-55 -31c-2 -2 -3 -2 -5 -2h-2l-6 6l-8 13l-8 -13l-6 -6h-2c-2 0 -3 0 -5 2l-55 31l-2 2l-33 -8l-20 -4l-14 -2c-14 -2 -23 -11 -25 -25l-2 -21l-10 -49v-4
c0 -8 6 -12 14 -12h63v35c0 6 3 10 9 10s10 -4 10 -10v-35h172v35c0 6 4 10 10 10zM818 260c6 0 10 -4 10 -10v-21h41c6 0 8 -1 8 1s0 4 -2 6l-8 49c-2 10 -5 16 -15 18l-45 9l-41 -23c-2 -2 -2 -2 -4 -2h-4c-2 2 -6 4 -8 10c-2 -6 -6 -8 -8 -10h-4c-2 0 -2 0 -4 2l-41 23
l-45 -9c-2 -2 -5 -4 -9 -6c27 -6 44 -20 50 -45l4 -23h114v21c0 6 3 10 11 10zM750 541c66 0 98 -43 98 -113v-104c21 -6 35 -12 39 -35l9 -49v-4c0 -16 -11 -27 -27 -27h-172l4 -25v-4c0 -20 -15 -37 -33 -37h-336c-18 0 -33 17 -33 37v4l4 25h-172c-16 0 -27 13 -27 29v4
l9 49c2 18 14 29 32 31l9 4v104c0 68 34 111 98 111s96 -43 96 -111v-106l7 -2c4 0 8 -2 12 -4v131c0 96 45 158 135 158s135 -62 135 -158v-131c4 2 6 4 8 4l9 2v104c0 70 30 113 96 113z" />
    <glyph glyph-name="group38" unicode="&#xe044;" 
d="M773 508c70 0 106 -49 106 -123v-108c21 -25 31 -55 31 -88v-9h-201c6 -21 10 -41 10 -61v-12h-438v12c0 20 4 40 10 61h-201v9c0 33 10 63 31 88v108c0 74 36 123 106 123c57 0 89 -29 101 -86v17c0 125 55 204 172 204c115 0 172 -79 172 -204v-17c12 57 44 86 101 86z
M775 260h-2c-4 -6 -7 -10 -9 -10h-2c-2 0 -20 9 -55 29l-2 2c-14 -10 -23 -19 -31 -33c12 -16 21 -31 29 -49h188c-2 21 -12 43 -26 61l-21 21l-53 -29c-2 -2 -2 -2 -4 -2h-4c-2 2 -6 4 -8 10zM838 348c8 0 12 7 12 19c0 8 -2 12 -4 12l-4 -2v14c-21 6 -39 15 -51 31
c-18 -23 -43 -35 -76 -35h-10v-10l-4 2c-4 0 -6 -6 -6 -16s6 -15 16 -15h4c2 -8 4 -16 10 -24c2 0 19 -9 48 -27l49 27c6 8 10 16 12 24h4zM818 301l-31 -20l4 -8l31 20v2zM725 293l33 -20l4 8l-33 20zM295 281l-2 -2l-49 -27c-2 -2 -4 -2 -6 -2h-2c-4 0 -7 4 -9 10h-2
c-2 -6 -6 -8 -8 -10h-4c-2 0 -2 0 -4 2l-51 27c-2 2 -4 4 -6 4c-6 0 -11 -9 -19 -29s-18 -39 -24 -55h188c8 18 17 33 29 49c-8 14 -17 23 -31 33zM178 295v-2l31 -20l4 8l-31 20zM271 301l-33 -20l4 -8l33 20zM418 299l-8 -14l65 -37l13 25l-64 38zM588 285l-6 14l-6 12
l-64 -38l13 -25zM381 430c-6 -4 -10 -10 -10 -20s6 -19 16 -27c4 -4 6 -6 8 -6s3 0 5 2c6 -16 14 -31 24 -45l76 -45l74 43c12 16 20 31 26 47h5c2 0 6 2 12 8s10 11 10 23s-2 18 -8 20h-8v19c-35 10 -63 26 -84 51c-27 -37 -68 -55 -125 -55l-13 -2v-13h-8zM289 348
c8 0 18 9 18 19c0 6 -2 10 -8 12l-4 -2v14c-21 6 -39 15 -53 31c-18 -23 -43 -35 -76 -35h-8v-10l-4 2c-2 -2 -4 -6 -4 -14c0 -10 4 -17 12 -17h4c2 -8 6 -16 12 -24c0 -2 2 -2 4 -2l6 -2l39 -23l39 23c6 2 7 4 9 4c4 0 8 8 10 24h4zM697 129c0 25 -3 44 -11 60
c-21 45 -48 74 -75 92c0 -4 -2 -6 -4 -8l-82 -46c-2 -2 -3 -2 -5 -2h-2l-10 11l-8 18l-8 -18l-10 -11h-2c-2 0 -30 15 -87 48c-2 2 -4 4 -4 8c-53 -41 -82 -91 -86 -152h394z" />
    <glyph glyph-name="group39" unicode="&#xe045;" 
d="M736 297c-8 2 -15 6 -23 12l-18 -6l43 -49l8 33zM770 252l42 51c-6 2 -9 4 -15 6c-8 -6 -16 -10 -26 -12l-9 -10zM672 412c0 -21 5 -27 17 -31v-4c10 -27 25 -47 43 -57c6 -2 12 -4 20 -6h4c18 0 25 10 35 16c14 14 19 29 29 49c12 8 18 19 18 35c0 6 -4 6 -8 8v27
c0 33 -11 49 -31 59v4c-2 6 -4 9 -4 15v6c-10 -10 -32 -17 -63 -19c-33 -8 -50 -18 -52 -32v-56c-4 -4 -8 -6 -8 -14zM473 275c-10 4 -18 10 -28 16c-10 -2 -21 -6 -31 -10l63 -70l13 49l-17 13v2zM521 209l63 72c-10 4 -19 8 -29 10c-10 -6 -20 -12 -30 -16v-2l-17 -13z
M396 445c-6 -6 -11 -7 -11 -19c0 -25 5 -39 19 -41l4 -2c10 -29 23 -53 41 -71l12 -7c10 -10 24 -14 45 -14c37 8 64 35 82 84l2 4c16 8 23 24 23 49c0 12 -3 11 -9 15v32c0 45 -15 68 -42 82c-4 8 -5 15 -5 23l-2 14l-10 -8c-6 -6 -33 -14 -86 -24c-29 -4 -59 -16 -63 -39
c-2 -8 -1 -13 -1 -19v-12c0 -14 -1 -21 1 -23v-24zM227 297c-8 2 -16 6 -24 12c-6 -2 -11 -4 -17 -6l43 -49l7 33zM260 252l43 51c-6 2 -10 4 -16 6c-8 -6 -15 -10 -25 -12l-10 -10zM309 379c14 4 19 17 19 35c0 2 -2 6 -8 8v27c0 33 -11 49 -31 59v4c-2 6 -4 9 -4 15l-2 6
l-2 -4c-10 -8 -29 -13 -58 -15c-31 -8 -49 -18 -51 -32c0 -6 0 -13 -2 -21v-35c-4 -4 -8 -6 -8 -14c0 -21 6 -27 18 -31v-4c8 -20 17 -35 29 -47c4 -8 19 -16 27 -16h10c8 0 14 2 20 6l15 10c12 12 22 27 28 45v4zM168 232c8 0 10 -3 10 -9v-28h117c6 10 11 22 17 32
c2 0 6 3 12 11s15 20 31 32c-10 10 -19 19 -33 25l-70 -82c-2 -2 -4 -2 -6 -2l-2 -2c-2 0 -4 2 -6 4l-72 80c-41 -21 -64 -55 -68 -98h58v28c0 6 4 9 12 9zM699 133c0 33 -9 48 -19 66c-14 29 -47 56 -78 74l-94 -111c-2 -2 -6 -2 -8 -2s-6 0 -8 2l-96 109
c-12 -4 -19 -9 -27 -17c-21 -18 -39 -38 -51 -59c-14 -14 -17 -37 -17 -62h86v43c0 6 2 8 8 8s9 -2 11 -8v-43h188v43c2 6 5 8 11 8s8 -2 8 -8v-43h86zM822 223c0 6 2 9 10 9s12 -3 12 -9v-28h58c-4 43 -27 77 -70 100l-70 -82c-2 -2 -4 -2 -6 -4c-4 0 -6 2 -8 4l-72 80
c-12 -6 -21 -13 -31 -23c25 -18 44 -44 60 -75h117v28zM78 186c0 70 53 120 110 138c-10 12 -18 25 -24 41c-14 8 -21 22 -21 43c0 10 1 20 7 26v21c-2 10 -2 19 -2 29c0 33 42 43 73 49c25 2 41 6 47 10l33 31l4 -45c0 -2 0 -6 2 -8c21 -12 33 -35 33 -72v-15
c6 -6 8 -12 8 -18c0 -23 -8 -41 -22 -51c-6 -16 -13 -29 -23 -41c27 -10 50 -23 68 -43c18 12 37 20 57 26c-14 18 -25 37 -35 60c-18 8 -28 30 -28 63c0 10 4 19 12 25v14c0 4 0 7 -2 13v34c0 8 2 17 8 27c10 20 33 33 72 41h12c37 4 58 10 64 16l39 37l6 -55
c0 -4 0 -8 2 -12c29 -14 45 -45 45 -90v-27c6 -6 10 -13 10 -23c0 -33 -10 -55 -28 -65c-8 -21 -19 -40 -33 -58c20 -6 39 -14 57 -26c18 20 41 33 68 43c-10 12 -17 25 -23 41c-14 8 -22 22 -22 43c0 10 2 20 8 26v54c4 29 37 39 70 45c25 2 41 6 47 10l34 31l3 -45
c0 -2 0 -6 2 -8c21 -12 34 -35 34 -72v-15c6 -6 7 -12 7 -18c0 -23 -7 -41 -21 -51c-6 -16 -14 -29 -24 -41c57 -18 110 -68 110 -138v-10h-209c6 -18 8 -35 8 -53v-10h-442v10c0 18 4 35 10 53h-211v10z" />
    <glyph glyph-name="group40" unicode="&#xe046;" 
d="M723 293c23 0 48 37 54 57c8 -4 16 11 16 19c0 6 -2 10 -4 10s-2 0 -4 -2v12c-21 6 -37 15 -47 29c-18 -21 -41 -31 -72 -31h-8v-10c-2 2 -4 2 -6 2s-2 -4 -2 -10c0 -10 6 -23 16 -19c6 -21 32 -57 57 -57zM223 350c6 -21 29 -57 54 -57c23 0 51 37 57 57h4
c8 0 12 13 12 21c0 4 0 8 -2 8s-4 0 -6 -2v12c-21 6 -37 15 -47 29c-18 -21 -41 -31 -72 -31h-8v-10c-2 2 -4 2 -6 2s-4 -4 -4 -10s8 -25 18 -19zM625 436c0 -16 -5 -47 -21 -47h-2c-6 -33 -18 -57 -36 -75c18 -6 35 -15 51 -27c2 4 4 37 8 98c6 76 39 113 98 113
s89 -37 95 -113c6 -88 12 -137 20 -147h-176c18 -29 27 -60 27 -93h-378c0 33 9 64 27 93h-176c14 25 20 75 20 145c6 76 36 113 95 113s92 -37 98 -113c4 -53 6 -86 8 -96c16 12 31 21 49 27c-16 16 -26 42 -32 75c-18 0 -25 25 -25 45c0 6 2 9 4 11c2 0 6 0 8 -2v37
c0 4 -2 26 -2 38c0 10 4 31 10 37c6 2 9 5 15 11c10 6 28 12 55 14l19 2c41 8 67 15 75 23l7 -31c31 -12 47 -39 47 -84v-47c2 2 6 2 8 2s4 -3 4 -9z" />
    <glyph glyph-name="heterosexual" unicode="&#xe047;" 
d="M328 512c-37 0 -64 43 -74 74h-2c-6 4 -10 8 -10 14c-2 2 -2 5 -2 9s2 6 8 8h2v8c0 25 6 47 20 63c16 16 35 23 58 25c49 -2 74 -34 76 -96h2c6 -2 8 -5 8 -15s-4 -16 -10 -16h-4c-8 -33 -35 -74 -72 -74zM385 500c76 -10 115 -47 115 -109h-346c0 61 40 97 116 109
l39 -76l5 49l-9 7h45l-10 -7l6 -49zM508 115c-113 8 -201 80 -242 168l-22 -49l-19 8l35 82l82 -33l-8 -20l-51 20c39 -78 117 -140 215 -154zM461 648c102 -25 186 -103 213 -205l27 47l18 -11l-47 -77l-76 47l11 18l47 -29c-25 92 -97 162 -187 187zM688 359
c66 0 97 -45 97 -115v-80h-72c20 21 31 49 33 84c-21 6 -37 15 -47 29c-18 -21 -41 -31 -72 -31h-2c4 -35 15 -62 33 -82h-70v80c0 70 34 115 100 115zM639 109l-18 -17l55 -55h-151c0 61 40 94 120 102l-32 -30h26zM846 37h-149l55 55l-18 17h24l-29 30
c78 -8 117 -41 117 -102z" />
    <glyph glyph-name="hierarchy7" unicode="&#xe048;" 
d="M795 133v121h-123v-121h123zM561 133v121h-122v-121h122zM326 133v121h-121v-121h121zM406 617v-185h186v185h-186zM754 285h72v-183h-183v183h80v47h-207v-47h76v-183h-184v183h76v47h-207v-47h80v-183h-183v183h72v76h238v41h-107v246h246v-246h-107v-41h238v-76z" />
    <glyph glyph-name="inheriting" unicode="&#xe049;" 
d="M629 98h156c0 27 -15 48 -31 58l-16 -15l-27 -34c-2 -2 -4 -2 -4 -2c-16 18 -29 33 -45 51c-16 -10 -31 -31 -33 -58zM729 168c8 8 13 17 17 27c14 -4 14 20 10 20c-2 0 -4 2 -4 0v10c-14 2 -25 9 -33 19c-12 -14 -28 -21 -49 -21l-6 -2v-6c-6 6 -8 -2 -6 -12
c2 -8 4 -10 10 -8c6 -16 12 -23 16 -23c0 -2 0 -2 2 -4c-6 -2 -12 -4 -18 -8l41 -45l39 45c-6 4 -13 6 -19 8zM398 395h204c0 31 -18 64 -41 78l-57 -65c-2 -2 -2 -2 -4 -2s-2 0 -2 2l-59 65c-23 -16 -41 -45 -41 -78zM439 551c-6 -2 -5 -6 -3 -16s7 -14 13 -12
c2 -10 8 -15 12 -21c8 -8 6 -10 10 -14c-8 -2 -16 -3 -24 -9l53 -61l53 61c-8 6 -16 7 -24 9c0 2 4 6 10 12s10 13 12 23c8 -2 13 2 15 12s1 14 -5 16h-2v10c-20 6 -35 13 -45 27c-14 -20 -36 -29 -65 -29h-6v-8h-4zM314 168c0 2 4 6 6 6c6 8 10 15 12 21c6 -2 8 0 10 8
c2 10 0 18 -6 12v10c-14 2 -25 9 -33 19c-10 -14 -28 -21 -49 -21l-6 -2v-6h-4c-2 0 -2 -2 -2 -4v-8c2 -8 6 -10 12 -8c4 -10 9 -19 17 -27c-6 -2 -13 -4 -19 -8l19 -19l22 -26l39 45c-6 4 -12 6 -18 8zM371 98c-2 27 -17 48 -33 58l-43 -49c0 -2 0 -2 -2 -2s-2 0 -2 2
l-29 34l-16 15c-16 -10 -31 -31 -31 -58h156zM500 660c59 0 88 -41 88 -103v-98c16 -21 23 -43 23 -68v-4h-107v-33h209v-55c41 -2 62 -29 62 -78v-76c12 -14 18 -31 18 -51v-4h-170v4c0 20 6 37 18 51v76c0 49 19 74 58 78v41h-398v-41c39 -4 58 -29 58 -78v-76
c12 -14 18 -31 18 -51v-4h-170v4c0 20 6 37 18 51v76c0 49 21 76 62 78v55h203v33h-101v4c0 25 7 47 23 68v98c0 62 29 103 88 103z" />
    <glyph glyph-name="male43" unicode="&#xe04a;" 
d="M381 314v-21h-84v21h84zM279 172c0 -10 10 -20 20 -20l78 -2v43c0 6 4 10 10 10s8 -4 8 -10v-43l210 -2v43c0 6 2 8 6 8h4c6 0 8 -2 8 -8v-43l78 -2h2c10 0 18 10 18 18v6l-14 84c-2 16 -19 31 -33 35l-55 12l-111 -127c-2 -2 -4 -2 -6 -2s-6 0 -8 2l-88 103
c-12 -29 -33 -45 -66 -45c-18 0 -33 6 -47 18l-14 -74v-4zM404 402c14 -47 41 -99 94 -105h8c20 2 48 17 58 35c16 18 28 41 38 68h3l12 4c10 6 16 16 16 28s-2 17 -8 17h-4c-2 0 -4 0 -4 -2v47c0 64 -49 108 -113 108s-111 -44 -113 -106v-45c-4 0 -4 2 -6 0
c-6 -2 -10 -7 -10 -17c0 -12 11 -32 23 -32h6zM521 215l79 90l-28 6c-16 -16 -31 -26 -49 -30l2 -2l-15 -15zM410 309v-10l70 -80l12 45l-15 15l3 2c-18 6 -34 15 -48 31zM338 252c29 0 47 20 53 43v19c-8 25 -24 41 -51 41c-29 0 -53 -23 -53 -52c0 -10 8 -28 14 -32
c10 -14 23 -19 37 -19zM336 375c35 0 62 -22 70 -49l12 2c-12 18 -21 36 -29 57c-18 6 -28 19 -34 39v12c0 14 6 23 18 31v35c2 66 59 119 129 119h4c74 0 131 -53 131 -127l-2 -31c10 -6 15 -14 15 -24c0 -31 -12 -50 -33 -56c-10 -21 -19 -41 -31 -57l92 -19
c21 -4 45 -28 47 -49l13 -84v-12c0 -18 -19 -33 -37 -33l-402 6c-21 2 -35 14 -39 35c0 2 0 6 2 10l15 82c0 2 0 2 2 4c-8 12 -11 25 -11 43c0 33 33 66 68 66z" />
    <glyph glyph-name="male44" unicode="&#xe04b;" 
d="M287 291l12 16l4 -2l17 -16l39 39l8 -6l2 -4l4 -4l-53 -50zM398 281c-8 -31 -31 -52 -70 -52c-20 0 -37 7 -53 23v-4l-17 -92v-4c0 -12 9 -21 21 -21h84v49c0 8 4 11 12 11s10 -3 10 -11v-49h230v49c0 8 2 11 10 11s12 -3 12 -11v-49h84c14 0 21 11 21 25l-17 92
c-2 16 -22 33 -36 37l-72 14c-4 -6 -7 -10 -13 -14c-29 -29 -63 -43 -104 -43c-39 0 -77 18 -102 39zM277 305c0 -31 26 -57 51 -57c31 0 53 22 53 51v2c0 31 -24 51 -51 51s-53 -22 -53 -47zM584 311c-4 4 -14 9 -16 11h-2c-2 6 -4 12 -4 18s2 15 6 23s8 21 12 41l8 -6
c2 2 2 2 2 4c10 10 9 35 15 49c2 4 2 8 2 10s1 4 -3 4h-8v4c4 8 6 19 6 35c0 47 -28 86 -59 96c-21 6 -43 9 -63 9h-3l-2 4l-24 -6l-2 2c-8 -6 -11 -5 -15 -15c-2 -4 -4 -6 -10 -6s-12 -2 -18 -8l2 -4c-8 -6 -12 -13 -12 -19l2 -2c-2 -10 -3 -25 -3 -43s3 -33 9 -47h-4
c-6 -2 -9 -8 -9 -14c0 -4 2 -6 4 -10c4 -21 5 -23 11 -35c2 -4 4 -6 6 -8l4 2l4 -4c2 -14 6 -21 10 -29s6 -13 6 -17s0 -10 -2 -18v-4c0 -8 -2 -12 -8 -12c-4 -2 -8 -5 -10 -7v-2h-4l-6 -2l10 -10c14 -14 53 -31 82 -31c31 0 61 12 88 33c2 2 6 4 8 8l-10 2v4zM258 301
c0 39 33 70 72 70c33 0 54 -16 66 -47c6 2 12 4 16 8v4c0 2 0 4 2 6v10c-6 10 -10 19 -12 29c-12 6 -19 15 -19 29l-2 4l-6 18c-2 6 -4 13 -4 21c0 10 2 20 8 26c-4 16 -6 29 -6 41s0 23 2 31v6c0 6 2 9 4 15l-4 4l10 14c8 8 17 13 31 17c2 6 8 10 14 14s13 10 27 20l4 -8
c6 2 10 2 14 2h7c8 0 16 0 22 -2h4v-4c51 -6 84 -25 105 -68c6 -18 10 -33 10 -47s0 -25 -2 -35h2c4 0 8 -6 8 -14c0 -6 0 -12 -2 -16c-6 -21 -8 -44 -22 -58c-2 -6 -5 -10 -9 -12c-4 -14 -14 -27 -14 -41c6 -2 10 -6 14 -12l95 -21c25 -6 47 -30 53 -53l16 -92v-10
c0 -21 -16 -41 -41 -41h-442c-21 0 -41 18 -41 36v15l16 92c2 8 4 15 10 21c-4 10 -6 18 -6 28z" />
    <glyph glyph-name="male45" unicode="&#xe04c;" 
d="M379 176h37c6 0 8 4 8 10h-45v-10zM375 203c2 0 2 -2 4 -4v-6h45l-6 32c-2 10 -6 13 -16 15l-35 8c-12 -12 -25 -18 -43 -18s-31 6 -43 18l-35 -8c-10 -2 -14 -5 -16 -15l-5 -32h43v6c0 2 1 4 3 4s4 -2 4 -4v-23h98v23c0 2 0 4 2 4zM225 186c0 -6 1 -10 7 -10h36v10h-43z
M291 250c10 -8 19 -12 33 -12s23 4 33 12l-11 2c-6 -4 -14 -6 -22 -6s-15 2 -21 6zM330 342c-10 0 -27 8 -41 8c-10 0 -16 -4 -16 -14v-14c-6 6 -9 -5 -7 -13s7 -10 13 -8c6 -18 14 -31 26 -41l11 -6h12c6 0 10 2 16 8c10 8 19 21 25 39c6 -2 12 0 14 8s0 11 -4 13h-4v8
c-6 18 -15 25 -25 27c-6 -10 -12 -15 -20 -15zM416 168h-184c-10 0 -17 10 -15 20l6 39c2 12 9 19 21 21l51 10c-10 10 -16 21 -22 35c-8 2 -17 15 -17 25c0 4 2 8 8 12c-2 4 -4 8 -4 14c0 27 20 52 43 58c12 2 21 2 29 -2c2 2 6 4 8 4h2l-2 -6c4 2 6 2 10 2
c23 0 39 -23 39 -43c0 -6 -2 -13 -4 -21v-6c6 -4 8 -8 8 -12c0 -10 -10 -23 -18 -25c-6 -14 -11 -25 -21 -35l50 -10c12 -2 20 -9 22 -21l6 -39c2 -10 -6 -20 -16 -20zM408 486c0 -6 4 -9 10 -9h35v9h-45zM408 494h45v4c0 2 2 4 4 4s4 -2 4 -4v-21h96v21c0 2 2 4 4 4
s3 -2 3 -4v-4h43l-5 31c-2 10 -6 14 -16 16l-33 8c-14 -12 -27 -18 -45 -18s-31 6 -43 18l-35 -8c-8 -2 -14 -6 -16 -16zM475 551c10 -8 21 -12 33 -12s25 4 35 12l-12 2c-8 -6 -15 -8 -23 -8s-16 2 -22 8zM514 643c-10 0 -27 7 -41 7c-10 0 -14 -3 -16 -13v-14
c-8 0 -12 -2 -8 -14c2 -8 8 -9 14 -7c12 -31 27 -47 45 -47c8 0 15 6 19 6c12 10 20 23 26 41c6 -2 11 -1 13 7s0 12 -4 14h-3v8c-6 18 -14 25 -26 27c-4 -10 -9 -15 -19 -15zM609 486h-45v-9h36c6 0 9 3 9 9zM445 645c0 37 20 60 57 60c6 0 10 -2 16 -4c2 2 3 4 9 4l-2 -6
c4 2 6 2 10 2c21 0 37 -23 37 -41c0 -6 -2 -13 -4 -23v-6c6 -4 8 -8 8 -14c0 -10 -7 -21 -15 -23c-6 -14 -14 -25 -22 -35l49 -10c12 -2 19 -10 21 -22l6 -39c2 -10 -5 -19 -15 -19h-182c-12 0 -22 7 -18 19l6 39c2 12 10 20 22 22l51 10c-10 10 -16 21 -22 35
c-10 4 -16 11 -16 21c0 6 2 12 8 16c-2 4 -4 8 -4 14zM787 352c0 133 -89 234 -193 269v22c115 -35 213 -146 213 -291c0 -14 -2 -27 -4 -41l-18 17c2 10 2 18 2 24zM793 186h-45v-10h35c6 0 10 4 10 10zM748 199v-6h43l-6 32c-2 10 -6 13 -14 15l-35 8
c-12 -12 -25 -18 -43 -18s-31 6 -45 18l-35 -8c-8 -2 -11 -5 -13 -15l-6 -32h43v6c0 2 2 4 4 4s4 -2 4 -4v-23h95v23c-2 2 0 4 2 4h4zM592 186c0 -6 4 -10 10 -10h35v10h-45zM658 250c10 -8 21 -12 35 -12s24 4 34 12l-12 2c-8 -4 -16 -6 -24 -6s-13 2 -21 6zM672 260
c2 0 6 -2 14 -6h5c8 0 14 2 20 8c12 8 21 21 27 39c12 -4 16 17 8 21h-2v8c-6 18 -15 25 -27 27c-4 -10 -10 -15 -20 -15c-2 0 -5 2 -13 4s-18 4 -28 4s-13 -4 -15 -14v-14c-2 2 -2 2 -2 0c-4 -2 -4 -5 -2 -13s3 -10 9 -8c6 -18 16 -31 26 -41zM629 344c0 27 24 60 55 60
c6 0 11 -2 17 -4c2 4 6 6 10 4l-2 -6c4 2 6 2 10 2c21 0 37 -21 37 -41c0 -6 -2 -13 -4 -23v-6c6 -4 8 -8 8 -14c0 -10 -8 -21 -16 -23c-6 -14 -11 -25 -21 -35l50 -10c12 -2 18 -9 20 -21l8 -39c2 -10 -8 -20 -18 -20h-181c-10 0 -18 10 -18 20l8 39c2 12 7 19 21 21l49 10
c-10 10 -15 21 -21 35c-8 2 -16 13 -16 23c0 6 2 10 8 14c-2 4 -4 8 -4 14zM502 64c76 0 142 28 197 81l14 -14c-59 -59 -129 -88 -211 -88h-2c-80 0 -150 29 -211 86l14 16c57 -53 123 -81 199 -81zM404 621c-104 -37 -191 -138 -191 -271c0 -6 0 -14 2 -24l-18 -19
c-2 16 -4 29 -4 43c0 146 98 256 211 293v-22z" />
    <glyph glyph-name="male46" unicode="&#xe04d;" 
d="M426 480c-12 0 -20 10 -20 22c0 6 4 12 10 16v43h-80v-415h330v415h-82v-43c6 -4 10 -10 10 -16c0 -12 -8 -22 -20 -22s-21 10 -21 22c0 6 3 12 9 16v43h-123v-43c6 -4 10 -10 10 -16c0 -12 -11 -22 -23 -22zM584 582h104v-459h-376v459h104v45h23v-45h122v45h23v-45z
M441 369v-14c-8 0 -9 -3 -7 -15c2 -8 7 -12 15 -10c6 -21 16 -35 30 -45l3 -4c10 -2 16 -4 20 -4s10 2 16 4l3 4c14 10 24 24 30 45c8 -2 13 2 15 10s0 13 -4 15h-3v8c-8 20 -18 30 -32 32c-6 -10 -11 -16 -19 -16c-2 0 -8 2 -16 4s-19 4 -31 4s-18 -6 -20 -18zM500 268
c-10 0 -17 1 -25 7l-14 -2c12 -10 25 -13 39 -13s27 3 39 13l-14 2c-8 -6 -15 -7 -25 -7zM445 189h110v26c0 2 2 4 4 4s3 -2 3 -4v-6h51l-8 35c-2 10 -5 16 -15 18l-41 8c-14 -14 -29 -20 -49 -20s-35 7 -49 21l-41 -9c-10 -2 -15 -8 -17 -18l-6 -35h51v6c0 2 1 4 3 4
s4 -2 4 -4v-26zM387 199c0 -6 3 -10 9 -10h42v10h-51zM604 189c6 0 9 4 9 10h-51v-10h42zM428 383c0 39 27 66 62 66c8 0 14 -2 20 -4c2 2 5 4 11 4l-1 -8c4 2 7 2 11 2c23 0 41 -29 41 -47c0 -8 -2 -15 -4 -25v-8c8 -4 10 -11 6 -23c-2 -10 -5 -16 -15 -18
c-6 -18 -14 -29 -24 -39l57 -12c14 -4 21 -11 23 -25l8 -43c2 -14 -7 -23 -19 -23h-208c-12 0 -21 9 -19 23l8 43c2 14 9 21 23 25l57 12c-10 10 -18 21 -24 39c-10 2 -13 8 -15 18c-4 12 -2 19 6 23c-2 4 -4 12 -4 20z" />
    <glyph glyph-name="male47" unicode="&#xe04e;" 
d="M266 148c0 -8 5 -17 15 -17h86v47c0 8 4 11 12 11s10 -3 10 -11v-47h222v47c0 8 2 11 10 11s12 -3 12 -11v-47h84c10 0 17 9 17 17v6l-15 90c-2 16 -17 33 -33 35l-77 16h-2l-82 -49c-8 0 -11 2 -13 6l-12 21l-12 -21c-2 -4 -7 -6 -13 -6l-84 49l-77 -16
c-14 -2 -31 -21 -33 -35l-15 -90v-6zM414 312l-4 -3l65 -38l11 24l-64 37l-4 -10h2zM588 406c6 6 11 32 17 57v4c-2 2 -1 2 -3 2h-4l-4 2l2 4v2c2 10 2 21 2 35c0 68 -46 97 -116 97h-3l-2 4c-8 0 -16 -2 -24 -6l-2 2c-10 -6 -13 -11 -15 -15c0 -2 -2 -4 -8 -4
s-12 -4 -18 -10l2 -2c-8 -6 -12 -13 -12 -19h2c-2 -10 -4 -23 -4 -39s4 -31 10 -51h-4c-6 0 -8 -2 -8 -4v-10c0 -12 6 -17 10 -29v-4l8 -16l2 -2l4 4l2 -4l-4 -2h4l16 -43v-11l62 -36l62 36c0 6 0 15 4 23s8 21 14 39zM588 309l-10 23l-64 -37l11 -24l65 38h-2zM619 482
c4 -4 8 -5 8 -15c0 -14 -6 -23 -8 -37c-2 -8 -4 -16 -6 -22l-6 -12c-4 -6 -7 -7 -11 -9c-2 -10 -6 -20 -12 -30c4 -2 6 -3 8 -5l15 -36l82 -15c23 -6 45 -30 51 -53l16 -90v-10c-4 -20 -18 -39 -41 -39h-430c-20 0 -41 18 -41 36v13l16 90c6 23 28 47 51 53l82 15l15 36
c2 2 4 3 8 5l-12 30c-6 2 -9 11 -13 15l-8 20c-6 12 -8 23 -8 35s2 19 8 25c-4 14 -6 27 -6 39s2 24 4 34c-2 2 -2 5 -2 7c0 4 2 8 4 12l-4 4l10 12c10 10 21 17 31 19c4 6 11 14 21 20l18 12l6 -8c4 2 8 2 12 2h7c8 0 14 0 20 -2h4v-4c51 -6 83 -24 101 -63
c8 -18 12 -32 12 -46s0 -28 -2 -38z" />
    <glyph glyph-name="male48" unicode="&#xe04f;" 
d="M279 209c-4 6 -7 10 -13 14l27 29l-27 27l13 14l30 -27l27 27l8 -6l6 -8l-28 -27l10 -12l8 -6l8 -7l2 -4l-14 -14l-4 4l-6 8l-8 6l-9 9zM484 260c-12 4 -23 9 -35 17c-14 -2 -25 -5 -39 -11l76 -88l16 60l-22 18zM541 176l76 90c-12 6 -23 9 -37 11
c-12 -10 -23 -15 -37 -19l2 -2l-20 -18zM652 441c0 14 -3 14 -11 16v37c0 53 -16 84 -47 98c-8 8 -10 21 -10 29l-2 22l-16 -14c-12 -10 -40 -18 -87 -24l-14 -1c-37 -6 -61 -18 -67 -34s-9 -29 -9 -39v-70c-8 -4 -12 -12 -12 -22c0 -39 7 -50 27 -56l2 -4
c12 -33 28 -60 49 -78l10 -10l12 -8c16 -6 27 -10 33 -10c20 0 36 6 54 18l10 10c21 18 37 43 47 76l2 4c12 6 19 11 23 27c4 14 6 25 6 33zM305 314c-33 0 -61 -29 -61 -62c0 -31 16 -51 45 -61c8 -2 14 -3 20 -3h2c25 2 58 23 60 48v22c0 31 -31 56 -66 56zM393 252
c0 -45 -39 -84 -84 -84h-10c-16 -25 -24 -55 -26 -84h108v51c0 8 4 11 10 11s9 -3 9 -11v-51h229v51c0 8 4 11 10 11s9 -3 9 -11v-51h108c-6 80 -58 143 -119 174l-116 -135c-2 -2 -1 -2 -5 -2s-6 0 -8 2l-117 133c0 -2 0 -2 2 -4zM305 336c43 0 72 -26 82 -59
c14 6 29 12 45 18c-18 20 -33 43 -43 72c-21 10 -32 34 -32 71c0 16 4 27 12 33v17c0 6 0 12 -2 20c0 84 30 103 94 115l14 2c45 4 70 10 78 18l45 43l6 -63c0 -4 1 -8 3 -14c35 -18 53 -54 53 -111v-29c8 -8 12 -18 12 -28c0 -39 -12 -64 -33 -76c-10 -27 -23 -50 -41 -70
c92 -27 177 -108 177 -221v-10h-521v10c0 35 7 69 25 100c-33 10 -54 39 -54 80s39 82 80 82z" />
    <glyph glyph-name="male49" unicode="&#xe050;" 
d="M348 520c0 94 50 160 142 160c14 0 27 -4 41 -10c0 -2 0 -2 -2 -2v-2l16 -4h2l8 -4c-2 2 -2 4 -4 6c6 2 15 4 27 4s25 -6 43 -16c35 -21 53 -50 53 -91c0 -18 -4 -36 -10 -57v-18c12 -8 18 -19 18 -35c0 -29 -14 -48 -39 -58c-14 -37 -34 -69 -55 -90l129 -28
c23 -6 51 -29 53 -54l17 -98v-10c-4 -29 -18 -43 -43 -43h-469c-21 0 -43 17 -43 37v16l12 72c-21 18 -33 38 -33 63c0 47 39 86 84 86c37 0 64 -18 78 -53l59 12c-21 21 -41 53 -55 90c-25 10 -39 29 -39 58c0 18 5 29 17 35c-6 6 -7 18 -7 34zM744 92c16 0 24 7 24 23
h-116v-23h92zM252 115c0 -16 7 -23 23 -23h90v23h-113zM379 260c0 -45 -39 -84 -84 -84c-10 0 -21 2 -33 8l-8 -49h111v13c0 6 2 10 10 10s12 -4 12 -10v-56h246v56c0 6 4 10 10 10s9 -4 9 -10v-13h114l-16 82c-2 18 -21 37 -39 39l-90 19c-29 -31 -66 -46 -109 -46
s-83 15 -114 46l-19 -4v-11zM301 197c29 0 58 32 58 63v8c-2 4 -2 7 -2 9c-10 31 -31 47 -62 47c-35 0 -63 -29 -63 -66c0 -20 8 -37 26 -49c10 -10 25 -12 43 -12zM508 268c-20 0 -39 5 -57 19l-29 -6c25 -21 55 -31 88 -31s63 10 88 31l-32 6c-18 -14 -38 -19 -58 -19z
M525 521c-14 2 -54 18 -70 18h-29c-29 -4 -45 -16 -49 -37v-33h-8c-6 0 -10 -4 -10 -12c0 -18 4 -29 12 -35s14 -10 16 -10h8c14 -49 35 -82 64 -103c18 -12 33 -18 43 -18c25 0 45 6 57 18c29 21 50 56 66 103h6c2 0 9 4 17 10s12 15 12 27s-4 18 -12 20h-7v19
c-16 41 -40 65 -69 69c-10 -23 -26 -36 -47 -36zM346 270v-20h-100v20h100z" />
    <glyph glyph-name="male50" unicode="&#xe051;" 
d="M756 645h-430v-41h389v-416h41v457zM674 562h-430v-351h430v351zM797 686v-540h-82v-82h-512v540h82v82h512zM541 428c0 -10 -6 -32 -16 -32h-2c-2 -21 -9 -36 -21 -48c43 -14 80 -57 80 -112h-248c0 55 37 96 80 112c-10 10 -17 27 -21 48h-2c-10 0 -16 20 -16 32
c0 4 2 6 4 6h4v50c0 10 2 18 4 20c8 8 24 13 49 19c33 2 52 8 60 16c0 -6 2 -13 6 -19c21 -10 31 -28 31 -57v-29h6c2 0 2 -2 2 -6z" />
    <glyph glyph-name="male51" unicode="&#xe052;" 
d="M328 260v-20h-84v20h84zM285 301c-29 0 -51 -22 -51 -51c0 -27 24 -51 53 -51c23 0 51 24 51 47c0 35 -24 55 -53 55zM215 246c0 41 29 76 70 76c33 0 55 -16 67 -45c18 6 39 10 60 14l63 -123l9 80l-15 12h72l-16 -12l10 -80l65 123c125 -18 187 -76 187 -176h-562
c0 29 5 57 17 78c-18 14 -27 32 -27 53zM504 311c-59 0 -101 66 -115 119c-2 -2 -4 -4 -6 -4c-10 0 -16 23 -16 35c0 14 4 19 12 21h2v16c0 78 45 137 121 137h6c80 -2 121 -53 123 -153h2c8 -2 12 -9 12 -19c0 -21 -6 -33 -18 -33h-2c-14 -51 -62 -119 -121 -119z" />
    </font>
</defs>
</svg>
